<svg width="356" height="82" viewBox="0 0 356 82" fill="none" xmlns="http://www.w3.org/2000/svg">
<path d="M78.5999 49.6L75.9 41.2H64.5L61.7999 49.6H56.7L66.5 20.5H74L83.8 49.6H78.5999ZM65.9 37H74.5L70.1999 23.8L65.9 37Z" fill="#231F20"/>
<path d="M85.8999 28.2H90.0999L90.4999 31H90.7999C91.3999 30 92.2999 29.2 93.2999 28.7C94.2999 28.2 95.4999 27.9 96.6999 27.9C97.2999 27.9 97.7999 27.9 98.3999 28V32.7C97.8999 32.6 97.1999 32.6 96.3999 32.6C95.3999 32.6 94.3999 32.8 93.3999 33.2C92.3999 33.6 91.5999 34.2 91.0999 35V49.6H85.9999V28.2H85.8999Z" fill="#231F20"/>
<path d="M104.2 58.4C103 58.3 101.9 58 100.8 57.7V53.6C103.1 54.3 105.3 54.6 107.3 54.6C108.8 54.6 110 54.4 110.9 54C111.8 53.6 112.5 53 112.9 52.2C113.3 51.4 113.6 50.3 113.6 48.9V47.2H113.3C112.6 48 111.8 48.6 110.9 49C109.9 49.4 108.9 49.6 107.7 49.6C106.2 49.6 104.8 49.2 103.5 48.5C102.3 47.8 101.3 46.6 100.5 45C99.7999 43.4 99.3999 41.5 99.3999 39.1C99.3999 35.3 100.4 32.5 102.3 30.5C104.3 28.6 107.2 27.6 111.1 27.6C112.4 27.6 113.7 27.7 115.1 27.9C116.5 28.1 117.7 28.4 118.8 28.7V47.8C118.8 50.3 118.4 52.3 117.6 53.8C116.8 55.3 115.6 56.5 114 57.2C112.4 57.9 110.3 58.3 107.8 58.3C106.6 58.6 105.4 58.6 104.2 58.4ZM111.8 45.1C112.5 44.8 113.1 44.4 113.6 43.8V32.1C112.6 31.9 111.6 31.8 110.7 31.8C108.7 31.8 107.1 32.4 106.1 33.5C105.1 34.6 104.6 36.4 104.6 38.9C104.6 41.3 105 43.1 105.9 44.1C106.8 45.1 108 45.6 109.6 45.6C110.3 45.6 111.1 45.4 111.8 45.1Z" fill="#231F20"/>
<path d="M140.5 40.4001H127.2C127.3 41.8001 127.5 42.9001 128 43.7001C128.5 44.5001 129.2 45.1 130.1 45.5C131.1 45.9 132.3 46 133.9 46C135.5 46 137.3 45.8 139.3 45.3V49.2001C137.2 49.7001 135.2 50 133.2 50C130.6 50 128.5 49.6 126.9 48.8C125.3 48 124 46.8001 123.2 45.2001C122.4 43.6001 122 41.5 122 38.8C122 36.4 122.4 34.4001 123.1 32.7001C123.8 31.1001 124.9 29.8 126.3 29C127.7 28.2 129.4 27.8 131.4 27.8C134.3 27.8 136.5 28.7 138.1 30.6C139.6 32.5 140.4 35.3 140.4 39L140.5 40.4001ZM128.4 32.6C127.7 33.5 127.3 35.1 127.3 37.3H135.8C135.8 35.1 135.4 33.5 134.7 32.6C134 31.7 133 31.2001 131.6 31.2001C130.1 31.2001 129.1 31.7 128.4 32.6Z" fill="#231F20"/>
<path d="M143.5 28.2H147.8L148.2 30.5H148.5C149.3 29.7 150.3 29 151.4 28.6C152.5 28.2 153.7 27.9 154.9 27.9C157.1 27.9 158.9 28.6 160.1 29.9C161.4 31.2 162 33.3 162 36.1V49.7H156.9V36.3C156.9 34.9 156.6 33.9 156 33.2C155.4 32.6 154.5 32.3 153.4 32.3C152.5 32.3 151.7 32.5 150.8 32.8C149.9 33.1 149.3 33.7 148.7 34.4V49.5H143.6L143.5 28.2Z" fill="#231F20"/>
<path d="M178.9 45.4V49.5C177.7 49.8 176.4 49.9 175.2 49.9C170.1 49.9 167.6 47.3 167.6 42.2V32.2H163.9V28.1H167.6L168.5 20.5H172.7V28.1H178.7V32.2H172.7V41.4C172.7 42.4 172.8 43.3 173.1 43.9C173.4 44.5 173.8 45 174.3 45.2C174.9 45.5 175.6 45.6 176.5 45.6C177.2 45.7 178 45.6 178.9 45.4Z" fill="#231F20"/>
<path d="M181.4 23.8C180.9 23.3 180.6 22.6 180.6 21.7C180.6 20.8 180.9 20.1 181.4 19.6C181.9 19.1 182.8 18.9 183.8 18.9C184.8 18.9 185.7 19.1 186.2 19.6C186.7 20.1 187 20.8 187 21.7C187 22.6 186.7 23.3 186.2 23.8C185.7 24.3 184.8 24.5 183.8 24.5C182.8 24.5 182 24.3 181.4 23.8ZM181.3 49.6V28.2H186.5V49.6C186.4 49.6 181.3 49.6 181.3 49.6Z" fill="#231F20"/>
<path d="M190.8 28.2H195.1L195.5 30.5H195.8C196.6 29.7 197.6 29 198.7 28.6C199.8 28.2 201 27.9 202.2 27.9C204.4 27.9 206.2 28.6 207.4 29.9C208.7 31.2 209.3 33.3 209.3 36.1V49.7H204.2V36.3C204.2 34.9 203.9 33.9 203.3 33.2C202.7 32.6 201.8 32.3 200.7 32.3C199.8 32.3 199 32.5 198.1 32.8C197.2 33.1 196.6 33.7 196 34.4V49.5H190.9L190.8 28.2Z" fill="#231F20"/>
<path d="M225.8 28.6C227.2 29.1 228.2 30 228.8 31.3C229.5 32.5 229.8 34.2 229.8 36.4V49.6H225.5L225.1 47.4H224.8C224.2 48.3 223.3 48.9 222.3 49.3C221.3 49.7 220.2 50 218.9 50C217.5 50 216.3 49.8 215.3 49.3C214.3 48.8 213.5 48.1 213 47.2C212.5 46.3 212.2 45.2 212.2 44C212.2 42 212.9 40.5 214.2 39.4C215.6 38.3 217.7 37.7 220.7 37.4L224.7 37V36.2C224.7 35.1 224.5 34.3 224.2 33.6C223.9 33 223.3 32.5 222.6 32.3C221.9 32 220.9 31.9 219.6 31.9C218.7 31.9 217.8 32 216.8 32.1C215.8 32.3 214.8 32.5 213.9 32.8V28.9C214.9 28.6 216 28.4 217.1 28.2C218.3 28 219.4 28 220.5 28C222.7 27.8 224.4 28.1 225.8 28.6ZM222.9 45.9C223.6 45.6 224.3 45.2 224.8 44.5V40L221.3 40.3C220 40.4 219 40.8 218.3 41.3C217.7 41.8 217.4 42.5 217.4 43.5C217.4 44.4 217.7 45.2 218.2 45.7C218.8 46.2 219.6 46.4 220.6 46.4C221.4 46.3 222.1 46.2 222.9 45.9Z" fill="#231F20"/>
<path d="M234 49C233.4 48.4 233.1 47.6 233.1 46.7C233.1 45.7 233.4 44.9 234 44.4C234.6 43.8 235.4 43.5 236.5 43.5C237.5 43.5 238.4 43.8 239 44.4C239.6 45 239.9 45.8 239.9 46.7C239.9 47.7 239.6 48.4 239 49C238.4 49.6 237.6 49.9 236.5 49.9C235.5 49.9 234.7 49.6 234 49Z" fill="#231F20"/>
<path d="M247.2 58.4C246 58.3 244.9 58 243.8 57.7V53.6C246.1 54.3 248.3 54.6 250.3 54.6C251.8 54.6 253 54.4 253.9 54C254.8 53.6 255.5 53 255.9 52.2C256.3 51.4 256.6 50.3 256.6 48.9V47.2H256.3C255.6 48 254.8 48.6 253.9 49C252.9 49.4 251.9 49.6 250.7 49.6C249.2 49.6 247.8 49.2 246.5 48.5C245.3 47.8 244.3 46.6 243.5 45C242.8 43.4 242.4 41.5 242.4 39.1C242.4 35.3 243.4 32.5 245.3 30.5C247.3 28.6 250.2 27.6 254.1 27.6C255.4 27.6 256.7 27.7 258.1 27.9C259.5 28.1 260.7 28.4 261.8 28.7V47.8C261.8 50.3 261.4 52.3 260.6 53.8C259.8 55.4 258.6 56.5 257 57.2C255.4 57.9 253.3 58.3 250.8 58.3C249.6 58.6 248.4 58.6 247.2 58.4ZM254.8 45.1C255.5 44.8 256.1 44.4 256.6 43.8V32.1C255.6 31.9 254.6 31.8 253.7 31.8C251.7 31.8 250.1 32.4 249.1 33.5C248.1 34.6 247.6 36.4 247.6 38.9C247.6 41.3 248 43.1 248.9 44.1C249.8 45.1 251 45.6 252.6 45.6C253.3 45.6 254.1 45.4 254.8 45.1Z" fill="#231F20"/>
<path d="M267.7 47.2001C265.9 45.4001 265.1 42.6001 265.1 38.9001C265.1 35.2001 266 32.4 267.7 30.6C269.4 28.8001 271.9 27.8 275.1 27.8C278.3 27.8 280.7 28.7 282.5 30.6C284.2 32.4 285.1 35.2001 285.1 38.9001C285.1 41.4001 284.7 43.4 283.9 45.1C283.1 46.7 281.9 48 280.5 48.8C279 49.6 277.2 50 275.2 50C271.9 50 269.5 49.1001 267.7 47.2001ZM278.6 44.4001C279.4 43.3001 279.8 41.5001 279.8 38.9001C279.8 36.3001 279.4 34.4001 278.6 33.4001C277.8 32.3001 276.6 31.8 275 31.8C273.4 31.8 272.2 32.3001 271.4 33.4001C270.6 34.5001 270.2 36.3001 270.2 38.9001C270.2 40.7001 270.4 42.1 270.8 43.1C271.2 44.1 271.7 44.9 272.4 45.3C273.1 45.8 274 46 275 46C276.6 46 277.8 45.5001 278.6 44.4001Z" fill="#231F20"/>
<path d="M292 49.7C290.7 49.5 289.4 49.2 288.3 48.9V17.9H293.4V30.3H293.7C294.4 29.5 295.2 28.9 296.1 28.5C297.1 28.1 298.2 27.9 299.4 27.9C301 27.9 302.4 28.3 303.6 29C304.8 29.7 305.8 30.9 306.6 32.5C307.3 34.1 307.7 36.1 307.7 38.5C307.7 42.3 306.7 45.2 304.8 47.1C302.9 49 299.9 50 296 50C294.7 50 293.4 49.9 292 49.7ZM301 44.3C302 43.2 302.5 41.4 302.5 38.8C302.5 36.3 302.1 34.6 301.2 33.5C300.3 32.5 299.1 32 297.5 32C296.7 32 296 32.1 295.2 32.4C294.5 32.7 293.9 33.1 293.4 33.7V45.5C294.3 45.7 295.3 45.9 296.4 45.9C298.5 46 300 45.5 301 44.3Z" fill="#231F20"/>
<path d="M311.1 49C310.5 48.4 310.2 47.6 310.2 46.7C310.2 45.7 310.5 44.9 311.1 44.4C311.7 43.8 312.5 43.5 313.6 43.5C314.6 43.5 315.5 43.8 316.1 44.4C316.7 45 317 45.8 317 46.7C317 47.7 316.7 48.4 316.1 49C315.5 49.6 314.6 49.9 313.6 49.9C312.5 49.9 311.7 49.6 311.1 49Z" fill="#231F20"/>
<path d="M332.9 28.6C334.2 29.1 335.3 30 335.9 31.3C336.6 32.5 336.9 34.2 336.9 36.4V49.6H332.6L332.2 47.4H332C331.4 48.3 330.5 48.9 329.5 49.3C328.5 49.7 327.4 50 326.1 50C324.7 50 323.5 49.8 322.5 49.3C321.5 48.8 320.7 48.1 320.2 47.2C319.7 46.3 319.4 45.2 319.4 44C319.4 42 320.1 40.5 321.4 39.4C322.7 38.3 324.9 37.7 327.9 37.4L331.9 37V36.2C331.9 35.1 331.7 34.3 331.4 33.6C331.1 33 330.5 32.5 329.8 32.3C329.1 32 328.1 31.9 326.8 31.9C325.9 31.9 325 32 324 32.1C323 32.3 322 32.5 321.1 32.8V28.9C322.1 28.6 323.2 28.4 324.3 28.2C325.5 28 326.6 28 327.7 28C329.8 27.8 331.6 28.1 332.9 28.6ZM330 45.9C330.7 45.6 331.4 45.2 331.9 44.5V40L328.4 40.3C327.1 40.4 326.1 40.8 325.4 41.3C324.8 41.8 324.5 42.5 324.5 43.5C324.5 44.4 324.8 45.2 325.3 45.7C325.9 46.2 326.7 46.4 327.7 46.4C328.5 46.3 329.3 46.2 330 45.9Z" fill="#231F20"/>
<path d="M341.1 28.2H345.3L345.7 31H346C346.6 30 347.5 29.2 348.5 28.7C349.5 28.2 350.7 27.9 351.9 27.9C352.5 27.9 353 27.9 353.6 28V32.7C353.1 32.6 352.4 32.6 351.6 32.6C350.6 32.6 349.6 32.8 348.6 33.2C347.6 33.6 346.8 34.2 346.3 35V49.6H341.2L341.1 28.2Z" fill="#231F20"/>
<path d="M27 16C27.5 16 28.1 16.1 28.6 16.4H28.7C29 16.4 29.6 16.5 30.2 16.6C30.3 16.6 30.3 16.6 30.4 16.6C30.1 16.5 29.8 16.4 29.6 16.2C29.4 16.1 29.3 16 29.1 15.9C28.5 15.6 27.9 15.5 27.8 15.5C27.7 15.5 27.7 15.4 27.7 15.3C27.7 15.2 27.8 15.1 27.8 15.1L30.7 14.7L27.8 14.3C27.7 14.3 27.7 14.2 27.7 14.2C27.7 14.1 27.7 14.1 27.8 14C27.8 14 28.3 13.7 28.9 13.6C29.2 13.5 29.7 13.4 30.3 13.2C30.3 13.2 30.4 13.2 30.4 13.1C30.1 13.1 29.8 13.1 29.5 13.1C29.3 13.1 29.1 13.1 28.9 13.1C28.2 13.1 27.6 13.2 27.6 13.2C27.5 13.2 27.4 13.2 27.4 13.1C27.4 13 27.4 12.9 27.5 12.9L30 11.4L27.2 12.1C27.1 12.1 27.1 12.1 27 12C27 11.9 27 11.9 27 11.8C27 11.8 27.3 11.3 27.9 11C28.1 10.8 28.6 10.5 29.1 10.1L29.2 10C28.9 10.2 28.6 10.2 28.3 10.3C28.1 10.4 28 10.4 27.8 10.5C27.1 10.8 26.6 11.1 26.6 11.1C26.5 11.2 26.4 11.1 26.4 11.1C26.3 11 26.3 11 26.4 10.9L28 8.50002L25.7 10.2C25.6 10.2 25.6 10.2 25.5 10.2C25.4 10.2 25.4 10.1 25.4 10C25.4 10 25.5 9.40002 25.9 8.90002C26.1 8.70002 26.4 8.20002 26.6 7.60002C26.6 7.60002 26.6 7.50002 26.7 7.50002C26.5 7.80002 26.2 8.00002 26 8.10002C25.9 8.20002 25.7 8.30002 25.6 8.50002C25.1 9.00002 24.8 9.50002 24.7 9.50002C24.7 9.60002 24.6 9.60002 24.5 9.60002C24.4 9.60002 24.4 9.50002 24.4 9.40002L25.1 6.60002L23.6 9.10002C23.6 9.20002 23.5 9.20002 23.4 9.20002C23.3 9.20002 23.3 9.10002 23.3 9.10002C23.3 9.10002 23.2 8.50002 23.3 7.90002C23.3 7.60002 23.4 7.00002 23.5 6.40002C23.5 6.30002 23.5 6.30002 23.5 6.20002C23.4 6.50002 23.3 6.80002 23.1 7.00002C23 7.20002 22.9 7.30002 22.8 7.50002C22.5 8.10002 22.4 8.80002 22.4 8.80002C22.4 8.90002 22.3 8.90002 22.2 8.90002C22.1 8.90002 22 8.80002 22 8.80002L21.6 5.90002L21.2 8.80002C21.2 8.90002 21.1 8.90002 21.1 8.90002C21 8.90002 21 8.90002 20.9 8.80002C20.9 8.80002 20.6 8.30002 20.5 7.70002C20.4 7.40002 20.3 6.90002 20.1 6.30002C20.1 6.30002 20.1 6.20002 20 6.20002C20 6.50002 20 6.80002 20 7.10002C20 7.30002 20 7.50002 20 7.70002C20 8.40002 20.1 9.00002 20.1 9.00002C20.1 9.10002 20.1 9.20002 20 9.20002C19.9 9.20002 19.8 9.20002 19.8 9.10002L18.3 6.60002L19 9.40002C19 9.50002 19 9.50002 18.9 9.60002C18.8 9.60002 18.8 9.60002 18.7 9.60002C18.7 9.60002 18.2 9.30002 17.9 8.70002C17.7 8.50002 17.4 8.00002 17 7.50002L16.9 7.40002C17.1 7.70002 17.1 8.00002 17.2 8.30002C17.3 8.50002 17.3 8.60002 17.4 8.80002C17.6 9.40002 18 9.90002 18 10C18 10.1 18 10.2 18 10.2C17.9 10.3 17.8 10.3 17.8 10.2L15.4 8.50002L17.2 10.8C17.2 10.9 17.2 10.9 17.2 11C17.2 11.1 17.1 11.1 17 11.1C17 11.1 16.5 11 15.9 10.6C15.7 10.4 15.2 10.1 14.6 9.90002C14.6 9.90002 14.5 9.90002 14.5 9.80002C14.8 10 14.9 10.2 15.1 10.5C15.2 10.6 15.3 10.8 15.5 10.9C16 11.4 16.5 11.7 16.5 11.8C16.6 11.8 16.6 11.9 16.6 12C16.6 12.1 16.5 12.1 16.4 12.1L13.6 11.4L16.1 12.9C16.2 12.9 16.2 13 16.2 13.1C16.2 13.2 16.1 13.2 16.1 13.2C16.1 13.2 15.5 13.3 14.9 13.2C14.6 13.1 14 13 13.4 13C13.3 13 13.3 13 13.2 13C13.5 13.1 13.8 13.2 14 13.4C14.1 13.5 14.3 13.6 14.5 13.7C15.1 14 15.8 14.1 15.8 14.1C15.9 14.1 15.9 14.2 15.9 14.3C15.9 14.4 15.8 14.5 15.8 14.5L12.9 14.9L15.8 15.3C15.9 15.3 15.9 15.4 15.9 15.4C15.9 15.5 15.9 15.5 15.8 15.6C15.8 15.6 15.3 15.9 14.7 16C14.4 16.1 13.9 16.2 13.3 16.4C13.3 16.4 13.2 16.4 13.2 16.5C13.5 16.5 13.8 16.5 14.1 16.5C14.1 16.5 14.5 16.5 14.7 16.5C14.8 16.5 15 16.5 15.1 16.5C15.7 16.1 16.4 15.8 17.2 15.6C17.3 15.6 17.4 15.6 17.5 15.7C17.6 15.8 17.6 15.8 17.6 15.9C17.7 15.8 17.9 15.7 18.1 15.7C18.7 15.4 19.4 15.3 20.3 15.2C20.4 15.2 20.5 15.2 20.6 15.3C20.6 15.4 20.7 15.4 20.7 15.5C20.9 15.4 21.2 15.3 21.4 15.3C22.1 15.2 22.8 15.2 23.6 15.3C23.7 15.3 23.8 15.4 23.9 15.5V15.6C24.1 15.6 24.4 15.5 24.6 15.5C25.3 15.5 26 15.6 26.8 15.9C26.9 15.8 27 15.9 27 16Z" fill="#FFC60B"/>
<path d="M22.8 12.3C25.6 11.9 25.9 12.7 25.9 12.7C25.9 12.7 26 12.9 26.2 12.8C26.2 12.8 26.4 12.8 26.3 12.6C26.3 12.6 26 11.7 24.5 11.5C24.5 11.5 23.7 11.4 22.9 11.5C22.7 11.5 22.6 12.1 22.6 12.1C22.5 12.4 22.8 12.3 22.8 12.3Z" fill="#231F20"/>
<path d="M20.4 12.9C20.1 12.7 19.3 12.8 19.3 12.8C18 12.8 17.7 13.6 17.7 13.6C17.6 13.9 17.8 13.9 17.8 13.9C18.1 14 18.2 13.8 18.2 13.8C18.2 13.8 18.3 13.6 18.8 13.4C18.8 13.5 18.8 13.6 18.8 13.6C18.8 14 19.1 14.3 19.5 14.3C19.9 14.3 20 14 20 13.6C20 13.5 20 13.4 19.9 13.3C20.1 13.4 20.3 13.5 20.4 13.7C20.4 13.8 20.5 13.8 20.8 13.8C21.1 13.8 21 13.6 21 13.6C20.8 13.1 20.4 12.9 20.4 12.9Z" fill="#231F20"/>
<path d="M22.7 13.9C22.9 13.9 23 13.9 23.1 13.8C23.2 13.6 23.4 13.4 23.6 13.4C23.6 13.5 23.5 13.6 23.5 13.7C23.5 14.1 23.8 14.4 24.2 14.4C24.6 14.4 24.9 14.1 24.9 13.7C24.9 13.6 24.9 13.5 24.9 13.5C25.4 13.6 25.5 13.9 25.5 13.9C25.5 13.9 25.6 14.1 25.9 14C25.9 14 26.1 14 26 13.7C26 13.7 25.7 12.9 24.4 12.9C24.4 12.9 23.6 12.9 23.3 13C23.3 13 22.9 13.2 22.7 13.9C22.5 13.7 22.5 13.9 22.7 13.9Z" fill="#231F20"/>
<path d="M17.3 12.8C17.5 12.9 17.6 12.7 17.6 12.7C17.6 12.7 17.9 11.9 20.7 12.3C20.7 12.3 21 12.4 20.9 12.1C20.9 12.1 20.8 11.5 20.6 11.5C19.8 11.4 19 11.5 19 11.5C17.5 11.7 17.2 12.6 17.2 12.6C17.1 12.8 17.3 12.8 17.3 12.8Z" fill="#231F20"/>
<path d="M14.9 19.4001C14.3 19.4001 13.6 19.5001 13.6 19.5001C13.5 19.5001 13.4 19.5001 13.4 19.4001C13.4 19.3001 13.3 19.2001 13.4 19.1001C13.9 18.4001 14 17.7001 14 17.2001C12.1 18.6001 12 20.0001 12 20.5001H12.1C13.3 20.6001 14.3 19.8001 14.9 19.4001Z" fill="#59AA47"/>
<path d="M17.3001 18.2001C17.1001 18.1001 16.9001 18.1001 16.6001 18.1001C16.2001 18.1001 16.0001 18.1001 16.0001 18.1001C15.9001 18.1001 15.8001 18.0001 15.8001 17.9001C15.8001 17.8001 15.8001 17.7001 15.9001 17.6001C16.6001 17.0001 16.9001 16.5001 17.0001 16.2001C14.8001 16.9001 14.3001 18.2001 14.2001 18.7001C14.4001 18.8001 14.7001 18.8001 15.1001 18.8001C15.5001 18.8001 16.0001 18.7001 16.6001 18.5001C16.8001 18.5001 17.0001 18.4001 17.3001 18.2001C17.3001 18.2001 17.3001 18.3001 17.3001 18.2001Z" fill="#59AA47"/>
<path d="M19.9 17.5001C19.3 17.2001 18.7001 17.1001 18.7001 17.1001C18.6001 17.1001 18.5 17.0001 18.5 16.9001C18.5 16.8001 18.5 16.7001 18.6 16.6001C19.3 16.2001 19.7 15.9001 19.9 15.6001C18.8 15.8001 17.9 16.1001 17.3 16.7001C17 17.0001 16.9 17.3001 16.8 17.5001C17.3 17.7001 17.8 17.8001 18.3 17.8001C18.6 17.8001 18.9 17.8001 19.1 17.7001C19.3 17.7001 19.6 17.6001 19.9 17.5001Z" fill="#59AA47"/>
<path d="M21.6001 16.8C21.5001 16.8 21.4001 16.7 21.4001 16.6C21.4001 16.5 21.5001 16.4 21.6001 16.4C22.3001 16.2 22.8001 15.9 23.0001 15.7C21.9001 15.6 21.0001 15.8 20.3001 16.2C20.0001 16.4 19.7001 16.7 19.6001 16.8C20.3001 17.4 21.3001 17.5 22.0001 17.5C22.2001 17.5 22.4001 17.5 22.6001 17.5C22.2001 17 21.6001 16.8 21.6001 16.8Z" fill="#59AA47"/>
<path d="M24.5001 17C24.4001 16.9 24.4001 16.8 24.4001 16.7C24.4001 16.6 24.5001 16.5 24.6001 16.5C25.3001 16.4 25.8001 16.2 26.1001 16.1C25.1001 15.8 24.1001 15.8 23.4001 16.1C23.0001 16.2 22.8001 16.4 22.6001 16.6C23.5001 17.7 24.8001 17.9 25.5001 17.9C25.0001 17.4 24.5001 17 24.5001 17Z" fill="#59AA47"/>
<path d="M31.6001 20.5C31.6001 20.2 31.6001 19.8 31.4001 19.3C31.1001 18.5 30.4001 17.9 29.4001 17.5C29.5001 17.9 29.8001 18.5 30.2001 19C30.3001 19.1 30.3001 19.2 30.2001 19.3C30.1001 19.4 30.0001 19.4 29.9001 19.4C29.9001 19.4 29.3001 19.3 28.7001 19.4C29.3001 19.8 30.5001 20.5 31.5001 20.5C31.5001 20.6 31.6001 20.6 31.6001 20.5Z" fill="#59AA47"/>
<path d="M29.3 18.8C28.8 18.2 28.1001 17.9 27.2001 18C26.9001 18 26.6 18.1 26.3 18.2C27 18.7 27.7 19 28.4 19H28.5C28.9 18.9 29.2 18.8 29.3 18.8Z" fill="#59AA47"/>
<path d="M25.3 17C25.7 17.3 26.2 17.5 26.8 17.5C27 17.5 27.3 17.5 27.6 17.4C28 17.3 28.4001 17.2 28.7001 17.1C28.3001 16.9 27.9 16.7 27.5 16.7C27.1 16.6 26.6001 16.6 26.2001 16.7C25.8001 16.7 25.5 16.9 25.3 17Z" fill="#59AA47"/>
<path d="M21.2 34.1H17.8C17.1 34.1 16.6 33.8 16.4 33.5C16.2 33.3 16.1 33.0001 16 32.7001V32.6C16 32.3 16 31.9 16 31.6C16.4 29.4 17.3 27.9 18.1 26.9C18 26.9 17.9 26.8 17.9 26.8C17.4 26.5 17.2 26 17.3 25.4C17.4 24.7 18.1 23.9 18.3 23.8C19.5 22.4 21.2 22.3 21.4 22.3C21.7 22.3 24 22.2 25.2 24.6C26.7 27.5001 27 29.9 27.3 31.8V31.9C27.3 32.2 27.3 32.5001 27.3 32.7001V32.8C27.2 33.1 27.1 33.3001 27 33.4001C26.7 33.7001 26.2 33.9 25.7 34C25.5 34 25.2 34 25.1 34C25 34 25 34 25 34H24H22.4V38.8H37.7C37.7 36 37.3 33.2 36.5 30.6C35.7 28.1 34.6 25.9 33.1 23.9C31.6 22 30 20.5 28.1 19.4C26.2 18.3 24.1 17.8 22 17.8C19.9 17.8 17.8 18.3 15.9 19.4C14 20.4 12.3 21.9 10.9 23.9C9.2 26 8 28.3 7.2 30.8C6.4 33.4 6 36.1001 6 38.9001H21.3C21.2 38.9001 21.2 34.1 21.2 34.1Z" fill="#05B4E9"/>
<path d="M6 38.9C6 41.1 6.2 43.2 6.7 45.2C13.5 44.4 17.6 43.6 18.8 42.8C19.7 42.2 20.3 41.9 21.2 41.9V38.9H6Z" fill="white"/>
<path d="M22.3 42C22.9 42.1 23.4 42.3 23.9 42.5C23.9 42.5 24 42.5 24.1 42.5C25 42.5 25.7001 42.7 26.7001 43.1C27.0001 43.2 27.3 43.3001 27.6 43.4001C27.7 43.4001 32.7 45.0001 36.8 45.2001C37.3 43.2001 37.5 41 37.5 38.8H22.3V42Z" fill="white"/>
<path d="M28.5001 48.7001C28.4001 48.8001 28.3001 49.0001 28.2001 49.1001C27.9001 49.3001 27.6001 49.5001 27.2001 49.5001C27.1001 49.6001 27.1001 49.8001 26.9001 49.9001C26.7001 50.2001 26.3001 50.5001 25.6001 50.4001C25.5001 50.5001 25.4001 50.6001 25.3001 50.8001C25.0001 51.1001 24.5001 51.3001 24.0001 51.2001C23.9001 51.3001 23.7001 51.4001 23.5001 51.5001C23.2001 51.6001 22.8001 51.7001 22.3001 51.6001V55.7001C22.3001 56.0001 22.1001 56.2001 21.8001 56.2001C21.5001 56.2001 21.3001 56.0001 21.3001 55.7001V51.8001C21.1001 51.9001 20.9001 51.9001 20.6001 51.9001C20.5001 51.9001 20.4001 51.9001 20.3001 51.9001C20.0001 51.8001 19.8001 51.7001 19.6001 51.5001C19.3001 51.6001 18.7001 51.6001 18.2001 51.3001C18.0001 51.2001 17.9001 51.0001 17.8001 50.8001C17.7001 50.8001 17.5001 50.8001 17.3001 50.7001C16.9001 50.6001 16.5001 50.3001 16.4001 49.9001C16.3001 49.9001 16.2001 49.9001 16.0001 49.9001C15.6001 49.8001 15.1001 49.7001 15.0001 49.3001C15.0001 49.2001 14.9001 49.1001 14.9001 49.0001C12.7001 50.1001 10.2001 51.2001 9.1001 51.7001C9.5001 52.4001 10.0001 53.2001 10.5001 53.8001C12.0001 55.7001 13.6001 57.2001 15.5001 58.3001C16.4001 58.8001 17.3001 59.2001 18.2001 59.4001C18.3001 59.2001 18.4001 59.1001 18.6001 59.0001C19.5001 58.4001 21.1001 58.8001 21.6001 59.0001C22.1001 58.9001 23.7001 58.4001 24.6001 59.0001C24.8001 59.1001 24.9001 59.3001 25.0001 59.4001C25.9001 59.1001 26.8001 58.8001 27.7001 58.3001C29.6001 57.3001 31.3001 55.8001 32.7001 53.8001C33.2001 53.2001 33.6001 52.5001 34.0001 51.8001C33.0001 51.3001 30.3001 50.1001 28.5001 48.7001Z" fill="white"/>
<path d="M23.2 62.6C23.2 62.5 23.2 62.4 23.2 62.3C23.2 62.2 23.2 62.1 23.2 62C23.7 61.9 24.5 61.7 25 61.1C25.3 60.8 25.4 60.4 25.3 59.9C25.3 59.5 25.1 59.2 24.8 59C23.9 58.4 22.3 58.8 21.8 59C21.3 58.9 19.7 58.4 18.8 59C18.5 59.2 18.3 59.5 18.3 59.9C18.3 60.3 18.4 60.7 18.6 61.1C19.1 61.7 19.9 61.9 20.4 62C20.4 62.1 20.4 62.2 20.4 62.3C20.4 62.4 20.4 62.5 20.4 62.6C20 62.9 18.8 64 17 64.2C17 64.3 17.2 64.5 17.5 64.8C19.1 64.5 20.1 63.7 20.6 63.2C20.6 63.3 20.7 63.3 20.8 63.4C20.7 63.8 20.2 64.9 18.3 65.4C18.6 65.5 19 65.7 19.4 65.7C20.7 65.1 21.2 64.2 21.3 63.7C21.4 63.7 21.5 63.7 21.6 63.7C21.7 63.7 21.8 63.7 21.9 63.7C22.1 64.2 22.5 65.1 23.8 65.7C24.2 65.6 24.6 65.5 24.9 65.4C23 64.9 22.6 63.8 22.4 63.4C22.5 63.4 22.5 63.3 22.6 63.2C23.1 63.7 24.2 64.5 25.7 64.8C26 64.5 26.2 64.3 26.2 64.2C24.7 64 23.5 62.9 23.2 62.6Z" fill="#05B4E9"/>
<path d="M24.4001 59.5C24.5001 59.6 24.6001 59.7001 24.6001 59.9001C24.6001 60.1001 24.6001 60.4 24.4001 60.5C24.2001 60.7 23.9001 60.9 23.5001 61C23.7001 60.7 23.7001 60.3 23.6001 60C23.5001 59.7 23.3001 59.4 23.1001 59.3C23.6001 59.3 24.1001 59.3 24.4001 59.5Z" fill="white"/>
<path d="M20.5 60.3001C20.8 59.6001 21.7 59.6001 21.7 59.6001C21.7 59.6001 22 59.6001 22.2 59.7001C22.6 59.8001 22.8 60.0001 22.9 60.3001C23 60.6001 22.8 60.9001 22.6 61.1001C22.3 60.9001 22 60.7001 21.6 60.7001C21.2 60.7001 20.9 60.8001 20.6 61.1001C20.6 60.9001 20.4 60.6001 20.5 60.3001Z" fill="white"/>
<path d="M19.9 61.1C19.6 61 19.2 60.8 19 60.6C18.8 60.4 18.8 60.2 18.8 60C18.8 59.8 18.9 59.7 19 59.6C19.2 59.5 19.5 59.4 19.9 59.4C20 59.4 20.2 59.4 20.3 59.4C20.1 59.6 19.9 59.8 19.8 60.1C19.7 60.4 19.8 60.8 19.9 61.1Z" fill="white"/>
<path d="M21 62.2C21 61.8 21.3 61.4 21.8 61.4C22.2 61.4 22.6 61.7 22.6 62.2C22.6 62.6 22.3 63 21.8 63C21.3 63 21 62.6 21 62.2Z" fill="white"/>
<path d="M26.0001 64.8001C24.5001 64.5001 23.4001 63.7001 22.9001 63.2001C22.9001 63.3001 22.8001 63.3001 22.7001 63.4001C22.8001 63.8001 23.3001 64.9001 25.2001 65.4001C25.5001 65.2001 25.8001 65.0001 26.0001 64.8001Z" fill="white"/>
<path d="M20.7001 63.2001C20.2001 63.7001 19.1001 64.5001 17.6001 64.8001C17.8001 65.0001 18.1001 65.2001 18.4001 65.3001C20.3001 64.8001 20.8001 63.7001 20.9001 63.3001C20.8001 63.3001 20.7001 63.2001 20.7001 63.2001Z" fill="white"/>
<path d="M40.9001 43C40.9001 42.9 40.9 42.8001 40.8 42.7001C40.7 42.6001 40.7 42.6 40.6 42.6C40.7 42.5 40.7 42.3001 40.8 42.2001C41 41.6001 41.2001 40.8 41.2001 40C41.2001 39.9 41.1 39.8001 41.1 39.7001C41 39.7001 41.0001 39.6 40.9001 39.6C40.9001 39.5 41 39.3001 41 39.2001C41.2 38.5001 41.2001 37.8 41.2001 37C41.2001 36.9 41.1 36.8001 41 36.7001C40.9 36.7001 40.8 36.7001 40.8 36.7001C40.8 36.5001 40.9001 36.4001 40.9001 36.2001C41.0001 35.5001 41 34.8001 40.8 33.9001C40.8 33.8001 40.7 33.7001 40.6 33.7001C40.5 33.7001 40.5001 33.7001 40.4001 33.7001C40.4001 33.6001 40.4001 33.5001 40.4001 33.4001C40.5001 32.7001 40.4001 32.0001 40.2001 31.2001C40.2001 31.1001 40.1 31 40 31C39.9 31 39.8001 31 39.7001 31C39.7001 30.8 39.7001 30.6 39.7001 30.5C39.7001 29.8 39.5001 29.1 39.2001 28.3C39.2001 28.2 39.1 28.1 39 28.1C38.9 28.1 38.8001 28.1 38.7001 28.1C38.7001 27.9 38.7001 27.8 38.7001 27.6C38.6001 26.9 38.4 26.2 38 25.5C38 25.4 37.9001 25.3 37.7001 25.3C37.6001 25.3 37.5 25.3 37.5 25.4C37.5 25.2 37.4001 25.1 37.4001 24.9C37.2001 24.2 36.9001 23.5 36.4001 22.9C36.3001 22.8 36.2 22.8 36.1 22.8C36 22.8 35.9 22.9 35.8 22.9C35.7 22.7 35.7 22.5 35.6 22.4C35.3 21.8 34.9 21.1 34.3 20.5C34.2 20.4 34.1 20.4 34 20.4C33.9 20.4 33.8 20.5 33.8 20.5C33.7 20.3 33.6 20.1 33.5 20C33.1 19.4 32.6 18.9 32 18.4C31.9 18.3 31.8001 18.3 31.7001 18.3C31.6001 18.3 31.5 18.4 31.5 18.5C31.1 17.9 30.5001 17.5 29.7001 17.2C29.8001 17.2 30 17.2 30.1 17.2C31 17.3 31.6001 17.1 31.7001 17.1C31.9001 17 32 16.9 32 16.7C32 16.5 31.8 16.3 31.6 16.3C30.6 16.3 30.2 16.1 29.8 15.8C29.7 15.7 29.6 15.7 29.5 15.7L31.8 15.4C32 15.4 32.2001 15.2 32.2001 15C32.2001 14.8 32 14.6 31.8 14.6L29.5 14C29.8 13.9 30.1 13.8 30.4 13.7C31.3 13.4 31.8 13 31.8 13C32 12.9 32 12.7 31.9 12.5C31.8 12.3 31.6 12.2 31.4 12.3C30.5 12.6 30 12.6 29.5 12.5C29.4 12.5 29.3001 12.5 29.2001 12.5L31.2001 11.3C31.4001 11.2 31.4 11 31.4 10.8C31.3 10.6 31.1 10.5 30.9 10.6L28.6 11.2C28.8 11 29.1 10.8 29.3 10.6C30 10 30.3 9.40005 30.3 9.40005C30.4 9.20005 30.3001 9.00005 30.2001 8.90005C30.0001 8.80005 29.8001 8.80005 29.7001 8.90005C29.0001 9.60005 28.6 9.70005 28 9.80005C27.9 9.80005 27.8001 9.90005 27.7001 9.90005L29.1 8.00005C29.2 7.80005 29.2 7.60005 29.1 7.50005C29 7.40005 28.7 7.30005 28.6 7.50005L26.7001 8.90005C26.8001 8.70005 27 8.40005 27.1 8.10005C27.5 7.30005 27.6 6.60005 27.6 6.60005C27.6 6.40005 27.5 6.20005 27.3 6.20005C27.1 6.10005 26.9 6.20005 26.8 6.40005C26.4 7.30005 26 7.60005 25.6 7.90005C25.5 8.00005 25.4 8.00005 25.4 8.10005L26 5.60005C26 5.40005 25.9 5.20005 25.8 5.10005C25.6 5.00005 25.4 5.10005 25.3 5.30005L24.1 7.30005C24.1 7.00005 24.2001 6.70005 24.2001 6.30005C24.2001 5.50005 24 4.80005 24 4.80005C23.9 4.60005 23.8 4.50005 23.6 4.50005C23.4 4.50005 23.2001 4.70005 23.2001 4.90005C23.2001 5.90005 23.0001 6.30005 22.7001 6.70005C22.7001 6.80005 22.6 6.90005 22.6 7.00005L22.3 4.70005C22.3 4.50005 22.1 4.30005 21.9 4.30005C21.7 4.30005 21.5 4.50005 21.5 4.70005L21 7.00005C20.9 6.70005 20.8001 6.40005 20.7001 6.10005C20.5001 5.20005 20 4.70005 20 4.70005C19.9 4.50005 19.7 4.50005 19.5 4.60005C19.3 4.70005 19.2 4.90005 19.3 5.10005C19.6 6.00005 19.6 6.50005 19.5 7.00005C19.5 7.10005 19.5 7.20005 19.5 7.30005L18.3 5.30005C18.2 5.10005 18 5.10005 17.8 5.10005C17.6 5.20005 17.5 5.40005 17.6 5.60005L18.2 7.90005C18 7.70005 17.8 7.40005 17.6 7.20005C17 6.50005 16.4 6.20005 16.4 6.20005C16.2 6.10005 16 6.20005 15.9 6.30005C15.8 6.50005 15.8 6.70005 15.9 6.80005C16.6 7.50005 16.7 7.90005 16.8 8.50005C16.8 8.60005 16.9 8.70005 16.9 8.80005L15 7.40005C14.8 7.30005 14.6 7.30005 14.5 7.40005C14.4 7.50005 14.3 7.80005 14.5 7.90005L15.9 9.80005C15.7 9.70005 15.4 9.50005 15.1 9.40005C14.3 9.00005 13.6 8.90005 13.6 8.90005C13.2 8.90005 13 9.00005 13 9.20005C12.9 9.40005 13 9.60005 13.2 9.70005C14.1 10.1 14.4 10.5 14.7 10.9C14.8 11 14.8 11.1 14.9 11.1L12.6 10.5C12.4 10.4 12.2 10.6 12.1 10.7C12 10.9 12.1 11.1 12.3 11.2L14.3 12.4C14 12.4 13.7 12.3 13.4 12.3C12.5 12.2 11.9 12.4 11.8 12.4C11.6 12.5 11.5 12.6 11.5 12.8C11.5 13 11.7 13.2 11.9 13.2C12.9 13.2 13.3 13.4 13.7 13.7C13.8 13.7 13.9 13.8 14 13.8L11.7 14.1C11.5 14.1 11.3 14.3 11.3 14.5C11.3 14.7 11.5 14.9 11.7 14.9L14 15.2C13.7 15.3 13.4 15.4 13.1 15.5C12.2 15.8 11.7 16.2 11.7 16.2C11.5 16.3 11.5 16.5 11.6 16.7C11.7 16.9 11.9 17 12.1 16.9C12.6 16.7 13 16.6 13.3 16.6C12.8 17 12.4 17.4 12.3 17.6C12.2 17.7 12.1 17.8 12 18C12 17.9 11.9 17.9 11.8 17.9C11.7 17.9 11.6 17.9 11.5 17.9C10.8 18.4 10.3 19 9.90005 19.5C9.80005 19.7 9.70005 19.8 9.60005 20C9.60005 19.9 9.50005 19.9 9.40005 19.9C9.30005 19.9 9.20005 19.9 9.10005 20C8.50005 20.6 8.10005 21.2 7.80005 21.9C7.70005 22.1 7.70005 22.2 7.60005 22.4C7.50005 22.3 7.50005 22.3 7.40005 22.3C7.30005 22.3 7.20005 22.3 7.10005 22.4C6.60005 23.1 6.30005 23.7 6.10005 24.4C6.00005 24.6 6.00005 24.8 6.00005 24.9C5.90005 24.8 5.80005 24.8 5.70005 24.8C5.60005 24.8 5.50005 24.9 5.40005 25C5.00005 25.7 4.80005 26.4 4.70005 27.1C4.70005 27.3 4.70005 27.4 4.70005 27.6C4.60005 27.5 4.50005 27.5 4.40005 27.5C4.30005 27.5 4.20005 27.6001 4.20005 27.7001C3.90005 28.5001 3.80005 29.2 3.70005 29.9C3.70005 30.1 3.70005 30.2 3.70005 30.4C3.60005 30.4 3.50005 30.3 3.40005 30.4C3.30005 30.4 3.20005 30.5 3.20005 30.6C3.00005 31.4 3.00005 32.2 3.00005 32.8C3.00005 32.9 3.00005 33.1001 3.10005 33.2001H3.00005C2.90005 33.2001 2.80005 33.3001 2.80005 33.4001C2.60005 34.2001 2.60005 35.0001 2.70005 35.7001C2.70005 35.9001 2.80005 36.0001 2.80005 36.2001H2.70005C2.60005 36.2001 2.50005 36.3 2.50005 36.5C2.40005 37.3 2.40005 38.1 2.60005 38.8C2.60005 38.9 2.70005 39.1001 2.70005 39.2001C2.60005 39.2001 2.50005 39.2001 2.50005 39.2001C2.40005 39.3001 2.30005 39.4 2.30005 39.5C2.30005 40.3 2.40005 41.1001 2.60005 41.7001C2.70005 41.9001 2.70005 42.1 2.80005 42.3C2.70005 42.3 2.60005 42.3001 2.50005 42.4001C2.40005 42.5001 2.40005 42.6001 2.40005 42.7001C2.50005 43.5001 2.80005 44.2 3.10005 44.8C3.20005 44.9 3.20005 45 3.30005 45.1C3.20005 45.1 3.20005 45.1001 3.10005 45.2001C3.00005 45.3001 3.00005 45.4 3.00005 45.5C3.20005 46.3 3.50005 47 3.90005 47.6C4.00005 47.7 4.10005 47.9 4.20005 48C4.10005 48 4.00005 48.1 4.00005 48.1C4.00005 48.7 4.00005 48.9 4.10005 49C4.40005 49.8 4.70005 50.4 5.20005 51C5.30005 51.1 5.40005 51.2 5.50005 51.3C5.40005 51.3 5.40005 51.4001 5.30005 51.4001C5.20005 51.5001 5.20005 51.6001 5.30005 51.7001C5.70005 52.4001 6.10005 53.1 6.60005 53.5C6.70005 53.6 6.80005 53.7 6.90005 53.8C6.80005 53.8 6.80005 53.9 6.70005 54C6.70005 54.1 6.70005 54.2 6.70005 54.3C7.10005 55 7.70005 55.6 8.20005 56C8.40005 56.1 8.50005 56.2 8.70005 56.3H8.60005C8.50005 56.3 8.40005 56.4 8.40005 56.5C8.40005 56.6 8.40005 56.7 8.50005 56.8C9.10005 57.4 9.70005 57.9001 10.2 58.2001C10.7 58.5001 11.2 58.7001 11.6 58.7001C12 58.8001 12.4 58.8001 12.8 58.7001C12.8 58.7001 12.8 58.7001 12.9 58.7001C13.9 59.4001 15 60 16.1 60.5C17 60.9 18 61.2001 18.9 61.4001C19.1 61.4001 19.3 61.5 19.5 61.5C19.1 61.4 18.7 61.1 18.4 60.8C18.4 60.7 18.3 60.7 18.3 60.6C17.6 60.4 17 60.2001 16.3 59.9001C15.2 59.5001 14.2 58.9001 13.2 58.2001C13.2 57.9001 13.2 57.5001 13.1 57.2001C13.8 57.8001 14.4 58.2 15.1 58.6C16 59.1 17 59.5 18 59.8C18 59.7 18 59.7 18 59.6C18 59.4 18.1 59.3 18.1 59.1C17.2 58.8 16.3 58.5 15.4 58C13.5 57 11.8 55.5 10.4 53.5C9.90005 52.8 9.40005 52.1001 9.00005 51.4001C10.1 50.9001 12.6 49.8001 14.8 48.7001C14.8 48.8001 14.8 48.9 14.9 49C15.1 49.4 15.6 49.6 15.9 49.6C16 49.6 16.1 49.6 16.3 49.6C16.4 49.9 16.7 50.2001 17.2 50.4001C17.4 50.5001 17.5 50.5 17.7 50.5C17.8 50.7 17.9 50.9 18.1 51C18.5 51.3 19.1 51.3001 19.5 51.2001C19.7 51.4001 19.9001 51.6 20.2001 51.6C20.3001 51.6 20.4 51.6 20.5 51.6C20.7 51.6 21.0001 51.5 21.2001 51.5V55.4001C21.2001 55.7001 21.4001 55.9001 21.7001 55.9001C22.0001 55.9001 22.2001 55.7001 22.2001 55.4001V51.3C22.7001 51.4 23.1 51.3001 23.4 51.2001C23.6 51.1001 23.8 51.0001 23.9 50.9001C24.4 51.0001 24.9001 50.9 25.2001 50.5C25.3001 50.4 25.4 50.2 25.5 50.1C26.2 50.1 26.6 49.8 26.8 49.6C26.9 49.5 27 49.3001 27.1 49.2001C27.5 49.2001 27.9 49 28.1 48.8C28.2 48.7 28.3 48.5001 28.4 48.4001C30.2 49.8001 32.9 51 34.1 51.5C33.7 52.2 33.2 52.9 32.8 53.5C31.3 55.4 29.7 56.9 27.8 58C26.9 58.5 26 58.9 25.1 59.1C25.2 59.2 25.2001 59.4 25.2001 59.6C25.2001 59.7 25.2001 59.7 25.2001 59.8C26.2001 59.5 27.2 59.1 28.1 58.6C28.8 58.2 29.5 57.7001 30.1 57.2001C30 57.5001 30 57.9001 30 58.2001C29.7 58.4001 28.9001 59 27.7001 59.6C26.8001 60 25.9 60.4 25 60.6H24.9C24.9 60.7 24.8 60.7 24.8 60.8C24.5 61.1 24.1001 61.4 23.7001 61.5C24.2001 61.4 24.7001 61.3001 25.2001 61.2001C26.2001 60.9001 27.1 60.6 28 60.1C29.2 59.5 30 58.9001 30.4 58.7001C30.7 58.8001 31.2 58.8001 31.6 58.7001C32.1 58.6001 32.6 58.4001 33 58.2001C33.6 57.9001 34.2001 57.4 34.7001 56.8C34.8001 56.7 34.8 56.6 34.8 56.5C34.8 56.4 34.7 56.3 34.6 56.3C34.6 56.3 34.6 56.3 34.5 56.3C34.7 56.2 34.9 56.1001 35 55.9001C35.5 55.5001 36.1 54.9001 36.5 54.2001C36.6 54.1001 36.6 54.0001 36.5 53.9001C36.5 53.8001 36.4 53.8001 36.3 53.7001C36.4 53.6001 36.5 53.5001 36.6 53.4001C37.1 52.9001 37.5001 52.3 37.9001 51.6C37.9001 51.5 37.9001 51.4 37.9001 51.3C37.8001 51.2 37.8001 51.2 37.7001 51.1C37.8001 51 37.9 50.9001 38 50.7001C38.4 50.2001 38.8 49.5001 39.1 48.7001C39.1 48.6001 39.1 48.5001 39.1 48.4001C39 48.3001 38.9 48.3 38.8 48.3C38.9 48.2 39 48.1001 39.1 47.9001C39.5 47.3001 39.8 46.6 40 45.8C40 45.7 40.0001 45.6 39.9001 45.5C39.8001 45.4 39.7 45.4001 39.6 45.4001C39.7 45.3001 39.8001 45.1 39.9001 45C40.6001 44.6 40.8001 43.8 40.9001 43ZM40.5 40.4001C40.5 40.4001 40.5 40.5001 40.5 40.4001C40.5 41.0001 40.4001 41.5 40.2001 42C40.0001 42.5 39.8 42.9001 39.5 43.2001C39.2 43.6001 38.8001 43.8001 38.7001 43.9001C38.2001 43.3001 38 42.5001 38 41.7001C38 41.4001 38 41.1001 38.1 40.9001C38.5 41.4001 38.7001 42.1 38.7001 42.1C38.7001 42.2 38.8001 42.3 38.9001 42.3C39.0001 42.3 39.1 42.3001 39.1 42.2001C39.6 41.2001 40.1 40.7001 40.5 40.4001ZM40.4001 37.5C40.5001 37.5 40.5001 37.5 40.4001 37.5C40.4001 38.1 40.4 38.6 40.3 39.1C40.2 39.6 40.0001 40.0001 39.7001 40.4001C39.4001 40.8001 39.1 41.1001 39 41.2001C38.2 40.3001 38.1001 39.0001 38.2001 38.2001C38.6001 38.7001 38.9001 39.2001 38.9001 39.2001C38.9001 39.3001 39 39.3 39.1 39.3C39.2 39.3 39.3 39.2 39.3 39.1C39.6 38.3 40.1001 37.8 40.4001 37.5ZM40.1 34.5C40.2 35.1 40.2 35.6 40.1 36.1C40 36.6 39.9001 37.0001 39.7001 37.4001C39.4001 37.9001 39.1 38.1001 39 38.2001C38.2 37.5001 38.0001 36.1 37.9001 35.3C38.4001 35.7 38.7001 36.2001 38.7001 36.2001C38.8001 36.3001 38.8001 36.3 38.9001 36.3C39.0001 36.3 39.1 36.2 39.1 36.1C39.4 35.4 39.8 34.8 40.1 34.5ZM39.6 31.7001C39.6 31.7001 39.7 31.7001 39.6 31.7001C39.7 31.7001 39.7 31.7001 39.6 31.7001C39.7 32.3001 39.7001 32.8 39.7001 33.3C39.7001 33.8 39.5 34.2 39.3 34.6C39.1 35.1 38.8001 35.4 38.7001 35.5C38.0001 34.9 37.7 34.1 37.6 33.5C37.5 33.2 37.5 33.0001 37.5 32.7001C38 33.1001 38.4001 33.6 38.4001 33.6C38.5001 33.7 38.6 33.7001 38.6 33.7001C38.6 33.7001 38.8 33.6 38.8 33.5C39 32.6 39.3 32.0001 39.6 31.7001ZM17 31.9V31.8C17.4 29.8 18.2001 28.5001 18.7001 27.7001C19.1001 27.1001 19.5001 26.8 19.7001 26.6C19.8001 26.6 19.8 26.5 19.9 26.5C20.1 26.3 20.1 26.1 20 25.9C19.8 25.7 19.6 25.7 19.4 25.8C19.4 25.8 19.3001 25.9 19.2001 26C18.8001 26.3 18.5 26.2001 18.5 26.2001C18.4 26.1001 18.3 25.9001 18.3 25.7001C18.4 25.3001 18.8 24.7 19 24.5C20 23.4 21.5 23.3 21.5 23.3C21.5 23.3 22 23.3 22.6 23.5C23.4 23.8 24 24.3001 24.5 25.2001C25.1 26.4001 25.6 27.6 25.9 28.8C25 28.5 24.4 27.9 24.4 27.9C24.2 27.7 23.9001 27.8 23.7001 28C23.6001 28.1 23.6 28.2 23.6 28.3C23.6 28.4 23.7 28.5 23.8 28.6C23.8 28.6 24.9001 29.5 26.2001 29.8C26.3001 30.2 26.4 30.7001 26.5 31.2001C26.1 31.0001 25.6001 30.9 25.2001 30.8C24.9001 30.7 24.7 30.7 24.5 30.6C23.6 30.3 22.9 29.7001 22.9 29.7001C22.7 29.5001 22.4001 29.6 22.2001 29.8C22.0001 29.7 22.0001 30.0001 22.2001 30.2001C22.2001 30.2001 23.1 30.9 24.1 31.3C24.3 31.4 24.6 31.5 24.9 31.6C26 31.9 26.5 32.1001 26.5 32.7001C26.5 32.8001 26.4 32.9001 26.4 32.9001C26 33.3001 25.3 33.3 25 33.3H24C23.8 33.3 22.7 33.3001 21.8 32.7001C19.4 31.1001 18.3 31.3 17 31.9ZM21 33.2001H17.8C17.5 33.2001 17.3 33.1 17.1 33L17 32.9001C18.4 32.2001 19.1 32.0001 21 33.2001ZM22.3 38.9001V34.1H23.9H24.9H25C25.1 34.1 25.4 34.1 25.6 34.1C26.2 34 26.6 33.8 26.9 33.5C27 33.4 27.2001 33.2001 27.2001 32.9001C27.2001 32.9001 27.2001 32.9 27.2001 32.8C27.3001 32.6 27.3001 32.3 27.2001 32V31.9C26.9001 30 26.6 27.6001 25.1 24.7001C23.9 22.3001 21.6 22.4 21.3 22.4C21.1 22.4 19.3 22.5 18.2 23.9C18.1 24 17.4 24.8 17.2 25.5C17.1 26.1 17.3 26.7 17.8 26.9C17.9 26.9 18 27 18 27C17.3 27.9 16.4 29.4001 15.9 31.7001C15.8 32.1001 15.8 32.4001 15.9 32.7001V32.8C16 33.1 16.1 33.4 16.3 33.6C16.5 33.9 16.9 34.2001 17.7 34.2001H21.1V39V42C20.2 42 19.5001 42.3001 18.7001 42.9001C17.5001 43.7001 13.4 44.5 6.60005 45.3C6.10005 43.3 5.90005 41.2 5.90005 39C5.90005 36.2 6.30005 33.4 7.20005 30.8C8.00005 28.3 9.10005 26.1 10.6 24.1C12.1 22.2 13.7 20.7 15.6 19.6C17.5 18.5 19.6001 18 21.7001 18C23.8001 18 25.9 18.5 27.8 19.6C29.7 20.6 31.4 22.1 32.8 24.1C34.3 26 35.4001 28.3 36.2001 30.8C37.0001 33.4 37.4001 36.1 37.4001 39C37.4001 41.2 37.2001 43.3001 36.7001 45.4001C32.5001 45.2001 27.6 43.6 27.5 43.6C27.2 43.5 26.8 43.4 26.5 43.3C25.5 42.9 24.7 42.7001 23.9 42.7001C23.8 42.7001 23.8001 42.7001 23.7001 42.7001C23.2001 42.5001 22.8 42.3001 22.1 42.2001V38.9001H22.3ZM28.7001 17.1C28.4001 17.2 28.1 17.3 27.6 17.4C27.3 17.5 27.1 17.5 26.8 17.5C26.2 17.5 25.7 17.4 25.3 17.1C25.5 17 25.8001 16.8 26.2001 16.7C26.6001 16.6 27.1 16.6 27.5 16.7C27.9 16.7 28.3001 16.8 28.7001 17.1C28.7001 17.1 28.7001 17 28.7001 17.1ZM29.3 18.8C29.1 18.9 28.8 19 28.5 19H28.4C27.7 19 27 18.7 26.3 18.2C26.7 18 27 18 27.3 18C28.1 17.9 28.8 18.2 29.3 18.8ZM26.1 16.1C25.8 16.2 25.3 16.4 24.6 16.5C24.5 16.5 24.4 16.6 24.4 16.7C24.4 16.8 24.4 16.9 24.5 17C24.5 17 25.1 17.4 25.5 17.9C24.8 17.9 23.5 17.7 22.6 16.6C22.7 16.5 23 16.3 23.4 16.1C24.1 15.8 25 15.8 26.1 16.1ZM23 15.6C22.8 15.8 22.3 16.1 21.6 16.3C21.5 16.3 21.4 16.4 21.4 16.5C21.4 16.6 21.5 16.7 21.6 16.7C21.6 16.7 22.2001 16.9 22.7001 17.3C22.5001 17.3 22.3 17.3 22.1 17.3C21.4 17.3 20.4001 17.2 19.7001 16.6C19.8001 16.4 20 16.2 20.4 16C21 15.7 21.9 15.5 23 15.6ZM19.9 15.7C19.7 15.9 19.4 16.3 18.6 16.7C18.5 16.7 18.5 16.8 18.5 17C18.5 17.1 18.6001 17.2 18.7001 17.2C18.7001 17.2 19.3 17.3 19.9 17.6C19.6 17.7 19.4 17.8 19.1 17.8C18.9 17.8 18.6 17.9 18.3 17.9C17.8 17.9 17.3 17.8 16.8 17.6C16.9 17.4 17 17.1 17.3 16.8C17.8 16.2 18.7 15.8 19.9 15.7ZM15.8 17.6C15.7 17.7 15.7 17.8 15.7 17.9C15.7 18 15.8 18.1 15.9 18.1C15.9 18.1 16.2 18.1 16.5 18.1C16.7 18.1 17 18.2 17.2 18.2C16.9 18.3 16.7 18.4 16.4 18.5C15.8 18.7 15.3 18.8 14.9 18.8C14.5 18.8 14.3 18.7 14 18.7C14.1 18.2 14.6 16.9 16.8 16.2C16.8 16.5 16.5 17.1 15.8 17.6ZM38.1 30.7001C38.2 29.8001 38.5001 29.2 38.7001 28.8C38.9001 29.3 39 29.9 39 30.3C39 30.8 39 31.2001 38.8 31.7001C38.6 32.2001 38.4 32.5 38.3 32.6C37.7 32.2 37.2001 31.6 36.9001 30.8C36.8001 30.5 36.7001 30.3 36.7001 30C37.2001 30.3 37.7001 30.8 37.7001 30.8C37.8001 30.9 37.9 30.9 38 30.9C38.1 30.9 38.1 30.8001 38.1 30.7001ZM37.2001 28C37.2001 27.1 37.4 26.5 37.6 26.1C37.8 26.6 38 27.1 38 27.6C38.1 28.1 38.1 28.5 38 29C37.9 29.5 37.7 29.9 37.6 30C36.9 29.7 36.4 29.1 36 28.3C35.9 28.1 35.8001 27.8 35.7001 27.5C36.3001 27.8 36.8 28.2001 36.8 28.2001C36.9 28.3001 37 28.3001 37.1 28.2001C37.1 28.2001 37.2001 28.1 37.2001 28ZM35.8 25.7001C35.9 25.7001 35.9001 25.6 35.9001 25.5C35.8001 24.6 35.9 24 36.1 23.5C36.4 24 36.6001 24.5 36.7001 24.9C36.8001 25.4 36.9 25.8 36.8 26.3C36.7 26.8 36.6 27.2 36.5 27.3C35.8 27 35.1001 26.5 34.7001 25.8C34.5001 25.6 34.4 25.3 34.3 25C34.9 25.2 35.5 25.6 35.5 25.6C35.6 25.7 35.7 25.7001 35.8 25.7001ZM34 23.3C34.1 23.4 34.2 23.4 34.3 23.3C34.4 23.2 34.4001 23.1 34.4001 23C34.2001 22.2 34.2 21.5 34.3 21.1C34.7 21.5 34.9 22 35.1 22.4C35.3 22.8 35.4001 23.3001 35.4001 23.7001C35.4001 24.2001 35.3 24.6001 35.3 24.7001C34.6 24.6001 33.9 24.2 33.3 23.5C33.1 23.3 32.9001 23 32.7001 22.8C33.4001 23 34 23.3 34 23.3ZM32.1 21.2001C32.2 21.2001 32.3001 21.2 32.4001 21.1C32.5001 21 32.5001 20.9 32.4001 20.8C32.0001 20.1 32 19.4 32 19C32.4 19.4 32.8 19.8 33 20.2C33.3 20.6 33.5 21 33.6 21.5C33.7 22 33.7001 22.4 33.7001 22.6C32.9001 22.6 32.1 22.2 31.6 21.8C31.4 21.6 31.1 21.4001 30.9 21.2001H31C31.6 21.0001 32.1 21.2001 32.1 21.2001ZM31.4 19.3C31.6 19.8 31.6 20.3 31.6 20.5H31.5C30.5 20.5 29.3001 19.8 28.7001 19.4C29.3001 19.3 29.9 19.4 29.9 19.4C30 19.4 30.1001 19.4 30.2001 19.3C30.3001 19.2 30.2001 19.1 30.2001 19C29.8001 18.5 29.6 17.9 29.4 17.5C30.4 17.9 31.1 18.5 31.4 19.3ZM13.2 16.4C13.2 16.4 13.3 16.4 13.3 16.3C13.9 16.1 14.5 16 14.7 15.9C15.4 15.8 15.8 15.5 15.8 15.5C15.9 15.5 15.9 15.4 15.9 15.3C15.9 15.2 15.8 15.2 15.8 15.2L12.9 14.8L15.8 14.4C15.9 14.4 15.9 14.3 15.9 14.2C15.9 14.1 15.9 14 15.8 14C15.8 14 15.2 13.9 14.5 13.6C14.3 13.5 14.1 13.4 14 13.3C13.7 13.2 13.5 13 13.2 12.9C13.3 12.9 13.3 12.9 13.4 12.9C14 12.9 14.6 13 14.9 13.1C15.6 13.2 16.1 13.1 16.1 13.1C16.2 13.1 16.2 13 16.2 13C16.2 12.9 16.2 12.9 16.1 12.8L13.6 11.3L16.4 12C16.5 12 16.6 12 16.6 11.9C16.6 11.8 16.6 11.7 16.5 11.7C16.5 11.7 16 11.4 15.5 10.8C15.4 10.7 15.2 10.5 15.1 10.4C14.9 10.2 14.7 10 14.5 9.70005C14.5 9.70005 14.6 9.70005 14.6 9.80005C15.2 10.1 15.7 10.4 15.9 10.5C16.5 10.9 17 11 17 11C17.1 11 17.1 11 17.2 10.9C17.3 10.8 17.2 10.8 17.2 10.7L15.4 8.40005L17.8 10.1C17.9 10.1 18 10.1 18 10.1C18.1 10 18.1 9.90005 18 9.90005C18 9.80005 17.6 9.40005 17.4 8.70005C17.3 8.50005 17.3 8.30005 17.2 8.20005C17.2 8.00005 17.1 7.70005 17 7.40005L17.1 7.50005C17.5 8.00005 17.8 8.50005 18 8.70005C18.4 9.20005 18.8 9.50005 18.8 9.60005C18.9 9.60005 18.9 9.60005 19 9.60005C19.1 9.60005 19.1 9.50005 19.1 9.40005L18.4 6.60005L19.9 9.10005C19.9 9.20005 20 9.20005 20.1 9.20005C20.2 9.20005 20.2001 9.10005 20.2001 9.00005C20.2001 9.00005 20.1 8.40005 20.1 7.70005C20.1 7.50005 20.1 7.30005 20.1 7.10005C20.1 6.80005 20.2 6.50005 20.1 6.20005C20.1 6.20005 20.1001 6.30005 20.2001 6.30005C20.4001 6.90005 20.5 7.50005 20.6 7.70005C20.7 8.40005 21 8.80005 21 8.90005C21 9.00005 21.1001 9.00005 21.2001 9.00005C21.3001 9.00005 21.3 8.90005 21.3 8.90005L21.7001 6.00005L22.1 8.90005C22.1 9.00005 22.2 9.00005 22.3 9.00005C22.4 9.00005 22.5 8.90005 22.5 8.90005C22.5 8.90005 22.6 8.30005 22.9 7.60005C23 7.30005 23.1001 7.20005 23.2001 7.00005C23.3001 6.70005 23.5 6.50005 23.6 6.20005C23.6 6.30005 23.6 6.30005 23.6 6.40005C23.6 7.00005 23.5 7.60005 23.4 7.90005C23.3 8.60005 23.4 9.10005 23.4 9.10005C23.4 9.20005 23.5 9.20005 23.5 9.20005C23.6 9.20005 23.6001 9.20005 23.7001 9.10005L25.2001 6.60005L24.5 9.40005C24.5 9.50005 24.5 9.60005 24.6 9.60005C24.7 9.60005 24.8 9.60005 24.8 9.50005C24.8 9.40005 25.2 8.90005 25.6 8.50005C25.7 8.40005 25.9 8.20005 26 8.10005C26.2 7.90005 26.4001 7.70005 26.7001 7.50005C26.7001 7.50005 26.7 7.60005 26.6 7.60005C26.3 8.20005 26 8.70005 25.9 9.00005C25.5 9.60005 25.4 10.1 25.4 10.1C25.4 10.2 25.4 10.2 25.5 10.3C25.6 10.3 25.6001 10.3 25.7001 10.3L28 8.50005L26.3 10.8C26.3 10.9 26.3 11 26.3 11C26.4 11.1 26.5 11.1 26.5 11C26.5 11 27.0001 10.6 27.7001 10.4C27.9001 10.3 28.1001 10.3 28.2001 10.2C28.5001 10.1 28.7 10 29.1 9.90005L29 10C28.5 10.4 28.1 10.8 27.8 10.9C27.3 11.3 26.9 11.7 26.9 11.7C26.9 11.8 26.9 11.8 26.9 11.9C26.9 12 27 12 27.1 12L29.9 11.3L27.4 12.8C27.3 12.8 27.3 12.9 27.3 13C27.3 13.1 27.4 13.1 27.5 13.1C27.6 13.1 28.2 13 28.8 13C29 13 29.2 13 29.4 13C29.7 13 30 13.1 30.3 13C30.3 13 30.2001 13 30.2001 13.1C29.6001 13.3 29 13.4 28.8 13.5C28.1 13.6 27.7001 13.9 27.7001 13.9C27.6001 13.9 27.6 14 27.6 14.1C27.6 14.2 27.7001 14.2 27.7001 14.2L30.6 14.6L27.7001 15C27.6001 15 27.6 15.1 27.6 15.2C27.6 15.3 27.7001 15.4 27.7001 15.4C27.8001 15.4 28.4 15.5 29 15.8C29.2 15.9 29.3 16 29.5 16.1C29.8 16.2 30 16.4 30.3 16.5C30.2 16.5 30.2 16.5 30.1 16.5C29.5 16.5 28.9 16.4 28.6 16.3H28.5C28.1 16.1 27.5 16 27 16C27 15.9 26.9 15.8 26.8 15.8C26 15.5 25.3 15.4 24.6 15.4C24.4 15.4 24.1 15.4 23.9 15.4V15.3C23.9 15.2 23.8 15.1 23.6 15.1C22.8 15 22 15 21.4 15.1C21.1 15.2 20.9001 15.2 20.7001 15.3C20.7001 15.2 20.7 15.2 20.6 15.1C20.5 15 20.4 15 20.3 15C19.5 15.1 18.7 15.2 18.1 15.5C17.9 15.6 17.8 15.6 17.6 15.7C17.6 15.6 17.5 15.5 17.5 15.5C17.4 15.4 17.3 15.4 17.2 15.4C16.4 15.6 15.7 15.9 15.1 16.3C14.9 16.3 14.8 16.3 14.7 16.3C14.6 16.3 14.2 16.3 14.1 16.3C13.8 16.4 13.5 16.3 13.2 16.4ZM14 17.2C14 17.7 13.9 18.3 13.4 19.1C13.3 19.2 13.3 19.3 13.4 19.4C13.5 19.5 13.6 19.5 13.6 19.5C13.6 19.5 14.2 19.4 14.9 19.4C14.4 19.8 13.3 20.5 12.1 20.5H12C12 20 12.1 18.6 14 17.2ZM10 21.4C10.1 21 10.3 20.5 10.6 20.1C10.9 19.7 11.2 19.3 11.7 18.9C11.7 19.3 11.6 20 11.2 20.8C11.2 20.9 11.2 21 11.2 21.1C11.2 21.2 11.4 21.2001 11.5 21.2001C11.5 21.2001 12.1 21 12.7 21C12.5 21.2 12.2 21.4 12 21.6C11.5 22 10.8 22.4 10.1 22.4H10C9.90005 22.4 9.90005 21.9 10 21.4ZM9.30005 21.1C9.30005 21.1 9.40005 21.1 9.30005 21.1C9.40005 21.1 9.40005 21.1 9.30005 21.1C9.40005 21.5 9.50005 22.2 9.20005 23.1C9.20005 23.2 9.20005 23.3 9.30005 23.4C9.40005 23.5 9.50005 23.5 9.60005 23.4C9.60005 23.4 10.1 23 10.8 23C10.4 23.6 9.40005 24.7 8.30005 24.9C8.10005 24.3 7.90005 22.9 9.30005 21.1ZM6.80005 24.9C6.90005 24.4 7.20005 24 7.50005 23.5C7.60005 23.9 7.80005 24.6 7.60005 25.5C7.60005 25.6 7.60005 25.7 7.70005 25.8C7.80005 25.9 7.90005 25.8 8.00005 25.8C8.00005 25.8 8.50005 25.3001 9.20005 25.2001C9.10005 25.4001 8.90005 25.7 8.70005 26C8.20005 26.7 7.60005 27.2 6.80005 27.4C6.70005 27.3 6.60005 26.9 6.60005 26.4C6.60005 25.8 6.60005 25.4 6.80005 24.9ZM5.40005 27.6C5.50005 27.1 5.60005 26.6 5.90005 26.1C6.10005 26.5 6.30005 27.2 6.30005 28C6.30005 28.1 6.40005 28.2001 6.40005 28.2001C6.50005 28.2001 6.60005 28.2001 6.70005 28.2001C6.70005 28.2001 7.20005 27.7 7.80005 27.5C7.70005 27.7 7.60005 28.0001 7.50005 28.2001C7.10005 29.0001 6.50005 29.5 5.80005 29.9C5.70005 29.7 5.50005 29.4 5.40005 28.9C5.40005 28.5 5.30005 28 5.40005 27.6ZM4.70005 28.8C5.00005 29.2 5.30005 29.8001 5.40005 30.7001C5.40005 30.8001 5.50005 30.9 5.60005 30.9C5.70005 30.9 5.80005 30.9 5.90005 30.8C5.90005 30.8 6.30005 30.3 6.90005 29.9C6.90005 30.2 6.80005 30.4001 6.70005 30.7001C6.40005 31.5001 5.90005 32.2 5.20005 32.6C5.10005 32.5 4.90005 32.2001 4.70005 31.7001C4.60005 31.3001 4.50005 30.8 4.50005 30.3C4.40005 29.9 4.50005 29.3 4.70005 28.8ZM3.80005 31.7001C3.80005 31.6001 3.80005 31.6001 3.80005 31.7001C3.80005 31.6001 3.80005 31.6001 3.80005 31.7001C4.10005 32.0001 4.50005 32.6 4.70005 33.5C4.70005 33.6 4.80005 33.7001 4.90005 33.7001C5.00005 33.7001 5.10005 33.7 5.10005 33.6C5.10005 33.6 5.50005 33 6.00005 32.6C6.00005 32.9 6.00005 33.1001 5.90005 33.4001C5.70005 34.2001 5.30005 34.9 4.70005 35.5C4.60005 35.4 4.30005 35.1001 4.10005 34.7001C3.90005 34.3001 3.80005 33.9001 3.70005 33.4001C3.70005 32.7001 3.70005 32.2001 3.80005 31.7001ZM3.40005 34.5C3.70005 34.8 4.20005 35.4001 4.40005 36.2001C4.40005 36.3001 4.50005 36.4001 4.60005 36.4001C4.70005 36.4001 4.80005 36.4 4.80005 36.3C4.80005 36.3 5.10005 35.7 5.60005 35.3C5.60005 35.6 5.60005 35.9001 5.50005 36.2001C5.40005 37.1001 5.00005 37.8 4.50005 38.3C4.40005 38.2 4.10005 37.9 3.80005 37.5C3.60005 37.1 3.40005 36.7001 3.40005 36.2001C3.30005 35.6001 3.30005 35.1 3.40005 34.5ZM3.20005 37.5C3.30005 37.5 3.40005 37.6001 3.40005 37.7001C3.60005 38.0001 4.00005 38.5001 4.20005 39.2001C4.20005 39.3001 4.30005 39.4001 4.40005 39.4001C4.50005 39.4001 4.60005 39.3001 4.60005 39.2001C4.60005 39.2001 4.70005 38.6 5.20005 38.1C5.30005 38.4 5.30005 39 5.20005 39.5C5.10005 40.2 4.80005 40.7001 4.40005 41.2001C4.00005 40.9001 3.00005 39.9 3.20005 37.5ZM3.00005 40.5C3.10005 40.6 3.20005 40.6001 3.20005 40.7001C3.50005 41.0001 3.90005 41.4 4.20005 42.1C4.20005 42.2 4.30005 42.2001 4.40005 42.2001C4.50005 42.2001 4.60005 42.1 4.60005 42C4.60005 42 4.90005 41.4 5.30005 40.8C5.40005 41.4 5.50005 42.6001 4.60005 43.9001C4.30005 43.7001 3.10005 42.8 3.00005 40.5ZM3.20005 43.5C3.60005 43.7 4.20005 44.1 4.70005 44.8C4.80005 44.9 4.90005 44.9001 4.90005 44.9001C5.00005 44.9001 5.10005 44.8001 5.10005 44.7001C5.10005 44.7001 5.30005 44.0001 5.60005 43.4001C5.70005 43.6001 5.80005 43.9001 5.90005 44.2001C6.10005 45.0001 5.90005 45.8 5.50005 46.6C5.40005 46.5 5.00005 46.4 4.60005 46C4.30005 45.7 4.00005 45.3001 3.70005 44.9001C3.50005 44.6001 3.30005 44.1 3.20005 43.5ZM3.90005 46.4001C3.90005 46.4001 3.90005 46.3001 3.90005 46.4001C3.90005 46.3001 3.90005 46.3001 3.90005 46.4001C4.00005 46.4001 4.10005 46.4 4.20005 46.5C4.50005 46.6 5.00005 47 5.50005 47.6C5.60005 47.7 5.70005 47.7001 5.80005 47.7001C5.90005 47.7001 6.00005 47.6 6.00005 47.5C6.00005 47.5 6.10005 46.8001 6.40005 46.2001C6.60005 46.8001 7.00005 48 6.40005 49.3C5.90005 49.2 4.50005 48.6001 3.90005 46.4001ZM5.60005 50.6C5.30005 50.2 5.00005 49.8 4.80005 49.3C4.90005 49.3 5.00005 49.3001 5.00005 49.4001C5.40005 49.5001 5.90005 49.8 6.50005 50.3C6.60005 50.4 6.70005 50.4001 6.80005 50.4001C6.90005 50.4001 7.00005 50.3001 7.00005 50.2001C7.00005 50.2001 7.00005 49.5001 7.20005 48.9001C7.30005 49.1001 7.50005 49.4001 7.60005 49.7001C7.90005 50.5001 7.90005 51.3 7.70005 52C7.50005 52 7.20005 51.9 6.70005 51.6C6.20005 51.2 5.90005 50.9 5.60005 50.6ZM6.00005 51.9001C6.50005 51.9001 7.10005 52.2001 7.80005 52.7001C7.90005 52.8001 8.00005 52.8001 8.10005 52.7001C8.20005 52.7001 8.20005 52.6 8.20005 52.5C8.20005 52.5 8.10005 51.9001 8.30005 51.2001C8.50005 51.4001 8.60005 51.7001 8.70005 51.9001C9.00005 52.4001 9.30005 53.3 9.10005 54.1C8.90005 54.1 8.50005 54 8.10005 53.8C7.70005 53.6 7.30005 53.4 7.00005 53C6.60005 52.8 6.30005 52.4001 6.00005 51.9001ZM11.6 56.8C11.6 56.8 11.4 56.2 11.3 55.6C11.9 56.1 12.8 57.1001 12.8 58.4001C12.7 58.4001 12.6 58.4001 12.4 58.4001C12.2 58.4001 12 58.4 11.8 58.3C11 58.1 10.1 57.7001 9.30005 56.9001C9.70005 56.8001 10.4 56.8001 11.3 57.2001C11.4 57.2001 11.5 57.2 11.6 57.1C11.6 57 11.7 56.9 11.6 56.8ZM9.40005 55C9.50005 55.1 9.60005 55.1 9.70005 55C9.80005 54.9 9.80005 54.8001 9.80005 54.7001C9.80005 54.7001 9.70005 54.1001 9.70005 53.4001C10.2 54.0001 10.9 55.1 10.9 56.3H10.8C10.6 56.3 10.3 56.3 9.90005 56.1C9.50005 56 9.10005 55.7001 8.70005 55.4001C8.30005 55.1001 8.00005 54.7 7.60005 54.3C8.00005 54.4 8.70005 54.6 9.40005 55ZM19 48.6C18.9 48.7 18.8 48.7 18.8 48.8C18.3 49.2 18 49.6 17.8 50C17.7 50 17.7 50 17.6 50C17.2 49.9 17.2 49.7 17.2 49.6C17.2 49.4 17.3 49.2001 17.6 48.9001C18 48.6001 18.3 48.4001 18.5 48.4001C18.6 48.4001 18.7 48.4 18.8 48.5C18.9 48.4 18.9 48.5 19 48.6ZM19.5 50.6C19.3 50.6 18.9001 50.7 18.7001 50.5C18.6001 50.5 18.6 50.4 18.6 50.3C18.6 50 19 49.6001 19.3 49.4001C19.7 49.1001 20.0001 48.9001 20.2001 48.9001C20.3001 48.9001 20.4 48.9 20.5 49C20.6 49.1 20.6 49.1001 20.6 49.2001C20.6 49.3001 20.5 49.5 20.3 49.6C19.9 50 19.6 50.3 19.5 50.6ZM21.5 50.7001C21.3 50.8001 20.8 51.2 20.4 51.1C20.3 51.1 20.2001 51.1 20.2001 51C20.4001 50.6 20.8 50.4001 21.1 50.2001C21.6 49.9001 21.8 50.1 21.8 50.1C21.9 50.2 21.9 50.3 21.9 50.3C21.9 50.4 21.7 50.6001 21.5 50.7001C21.6 50.7001 21.6 50.7001 21.5 50.7001ZM17.2 48C17.1 48.1 17.1 48.1001 17 48.2001C16.8 48.4001 16.5 48.7 16.4 49.1C16.3 49.1 16.3 49.1 16.2 49.1C15.9 49.1 15.8 49.0001 15.8 48.9001C15.8 48.9001 15.7 48.7 15.9 48.5C16.1 48.2 16.6 48 17 48H17.1C17.1 48 17.1 48 17.2 48ZM27.7001 48.5C27.6001 48.6 27.4001 48.7001 27.2001 48.7001C26.9001 48.2001 26 47.2 24.9 46.6C24.8 46.6 24.7 46.5 24.6 46.6C24.5 46.6 24.4 46.7 24.4 46.8C24.4 46.9 24.3 47 24.4 47.1C24.4 47.2 24.5 47.3 24.6 47.3C25.6 47.8 26.3 48.7 26.6 49.1C26.6 49.2 26.5 49.2 26.5 49.3C26.3 49.5 26.1 49.6 25.8 49.6C25.7 49.4 25.5 49.1 25.3 48.8C25 48.4 24.3001 47.9001 24.2001 47.9001C24.1001 47.8001 24 47.8 23.9 47.8C23.8 47.8 23.7 47.9 23.6 48C23.5 48.1 23.5 48.2 23.5 48.3C23.5 48.4 23.6001 48.5 23.7001 48.6C23.9001 48.7 24.4 49.1001 24.6 49.4001C24.9 49.7001 25 49.9 25 50C25 50.1 24.9 50.2 24.8 50.3C24.7 50.4 24.5 50.5 24.3 50.5C24.2 50.3 24 49.8001 23.6 49.4001C23.5 49.2001 23.2 49.2001 23 49.4001C22.9 49.5001 22.9 49.6001 22.9 49.7001C22.9 49.8001 22.9 49.9 23 50C23.3 50.3 23.5 50.6 23.6 50.8C23.5 50.8 23.5 50.9001 23.4 50.9001C23.2 51.0001 23.0001 51 22.7001 51C22.8001 50.8 22.9 50.7 22.9 50.5C22.9 50.3 22.9 49.9 22.5 49.6C22.3 49.4 22 49.3 21.5 49.3C21.5 49.1 21.3 48.8 21.1 48.6C20.7 48.3 20.3 48.2 19.8 48.3C19.7 48.1 19.6001 47.9001 19.2001 47.7001C18.9001 47.5001 18.5 47.5 18.1 47.6C17.8 47.3 17.3 47.3 17.2 47.3C16.7 47.2 16 47.5001 15.5 47.9001C13.2 49.1001 10.2 50.5 9.00005 51C8.40005 49.8 7.80005 48.5001 7.40005 47.2001C7.10005 46.7001 7.00005 46.3 6.90005 46C10.3 45.6 13.1 45.2 15.1 44.8C17.2 44.4 18.6 44 19.3 43.5C20.1 42.9 20.6 42.7001 21.4 42.7001C21.6 42.7001 21.7 42.7 21.9 42.8C21.8 42.9 21.6 42.9 21.5 43C21.2 43.2 21 43.4 20.8 43.5C20.6 43.6 20.5 43.8001 20.3 43.9001C20.1 44.0001 19.9001 44.1001 19.7001 44.2001C19.2001 44.4001 18.8001 44.6001 18.7001 44.9001C18.6001 45.2001 18.6 45.6001 18.9 45.9001C19.3 46.4001 19.9 46.4001 20.3 46.4001C20.8 46.4001 21.5 46.2001 22 45.9001C22.2 45.8001 22.3 45.7 22.5 45.6C22.7 45.5 22.9 45.3 23 45.3C23.4 45.2 23.9 45.2001 24.4 45.4001C24.9 45.6001 25.4 45.9001 25.8 46.2001C26.9 46.9001 27.7 47.8 27.9 48.1C27.8 48.3 27.8001 48.4 27.7001 48.5ZM29.2001 48.2001C28.8001 48.0001 28.6 47.7 28.5 47.6L28.4 47.5C28 47.1 27.3001 46.2 26.2001 45.6C25.4001 45.1 24.1001 44.2 22.7001 44.6C22.4001 44.7 22.2 44.8 21.9 45C21.8 45.1 21.6 45.2 21.5 45.3C21.1 45.5 20.5001 45.7001 20.2001 45.7001C19.8001 45.7001 19.6 45.7 19.5 45.6C19.4 45.5 19.4 45.4001 19.4 45.4001C19.5 45.3001 19.8 45.2 20 45.1C20.2 45 20.5 44.9 20.6 44.8C20.9 44.6 21.0001 44.5 21.2001 44.3C21.4001 44.2 21.5 44 21.8 43.8C22.2 43.5 22.7 43.5 23.3 43.5C23.4 43.5 23.5 43.5 23.6 43.5C23.7 43.5 23.8 43.5 23.9 43.5C24.6 43.5 25.3 43.7 26.3 44.1C26.6 44.2 26.9 44.3001 27.3 44.4001C27.4 44.4001 28.7 44.8 30.5 45.3C32.1 45.7 34.4 46.1 36.5 46.3C36.4 46.6 36.3001 47 36.2001 47.3C35.7001 48.7 35.2 50 34.5 51.3C33.5 50.6 30.9001 49.5001 29.2001 48.2001ZM34.2001 56.9001C33.2001 57.9001 32.3001 58.2 31.7001 58.3C31.5001 58.3 31.3 58.4001 31.1 58.4001C30.9 58.4001 30.8001 58.4001 30.7001 58.4001C30.7001 57.7001 30.9 56.9001 31.5 56.2001C31.7 56.0001 31.9 55.8 32.1 55.6C32 56.2 31.8 56.8 31.8 56.8C31.8 56.9 31.8 57 31.8 57.1C31.9 57.2 32 57.2001 32.1 57.2001C33 56.8001 33.7001 56.8001 34.2001 56.9001ZM36 54.4001C35.7 54.9001 35.3001 55.2 34.9001 55.5C34.5001 55.8 34.1001 56.0001 33.7001 56.2001C33.3001 56.3001 33 56.4001 32.8 56.4001H32.7001C32.7001 55.7001 32.9 54.9001 33.3 54.2001C33.4 54.0001 33.6 53.7 33.8 53.5C33.9 54.1 33.7001 54.8 33.7001 54.8C33.7001 54.9 33.7 55 33.8 55C33.9 55.1 34 55.1 34.1 55C34.9 54.6 35.6 54.4001 36 54.4001C36.1 54.4001 36.1 54.4001 36 54.4001ZM36.6 53.1C36.2 53.4 35.9 53.7001 35.5 53.9001C35 54.1001 34.6 54.2001 34.5 54.2001C34.4 53.5001 34.5001 52.7001 34.9001 51.9001C35.0001 51.7001 35.2 51.4001 35.3 51.2001C35.4 51.8001 35.4001 52.5 35.4001 52.5C35.4001 52.6 35.4 52.7001 35.5 52.7001C35.6 52.7001 35.7 52.7001 35.8 52.7001C36.5 52.2001 37.2 52.0001 37.6 51.9001C37.3 52.4001 37 52.8 36.6 53.1ZM38 50.5C37.7 50.9 37.3 51.2001 37 51.4001C36.6 51.7001 36.2 51.7 36 51.8C35.8 51.1 35.8 50.3 36.1 49.5C36.2 49.3 36.3001 49 36.4001 48.8C36.6001 49.4 36.6 50.1 36.6 50.1C36.6 50.2 36.7 50.3 36.8 50.3C36.9 50.3 37 50.3001 37.1 50.2001C37.6 49.6001 38.2 49.3001 38.5 49.2001C38.6 49.2001 38.7 49.1 38.8 49.1C38.6 49.7 38.3 50.1 38 50.5ZM39 47.8C38.7 48.2 38.4 48.6 38.1 48.8C37.7 49.1 37.3 49.2 37.1 49.3C36.8 48.5 36.9 47.6 37 47C37.1 46.7 37.2 46.5001 37.3 46.2001C37.6 46.8001 37.6001 47.5 37.7001 47.5C37.7001 47.6 37.8001 47.7001 37.9001 47.7001C38.0001 47.7001 38.1001 47.7 38.2001 47.6C38.7001 46.9 39.4 46.6001 39.8 46.4001C39.5 46.9001 39.3 47.4 39 47.8ZM39.8 44.9001C39.6 45.3001 39.3 45.7 39 46C38.6 46.3 38.3 46.5 38.1 46.6C37.7 45.9 37.6001 45.1001 37.7001 44.2001C37.7001 43.9001 37.8001 43.6001 37.9001 43.4001C38.2001 44.0001 38.4001 44.7001 38.4001 44.7001C38.4001 44.8001 38.5 44.9001 38.6 44.9001C38.7 44.9001 38.8 44.9 38.8 44.8C39.3 44.1 39.8001 43.6001 40.2001 43.4001C40.1001 44.0001 40 44.5001 39.8 44.9001Z" fill="#231F20"/>
<path d="M34.2001 56.9001C33.8001 56.8001 33.0001 56.8001 32.2001 57.2001C32.1001 57.2001 32.0001 57.2001 31.9001 57.1001C31.8001 57.0001 31.8001 56.9001 31.8001 56.8001C31.8001 56.8001 32.0001 56.2001 32.1001 55.6001C31.9001 55.8001 31.7001 56.0001 31.5001 56.2001C30.9001 56.9001 30.6001 57.6001 30.7001 58.4001C30.8001 58.4001 30.9001 58.4001 31.1001 58.4001C31.3001 58.4001 31.5001 58.4001 31.7001 58.3001C32.3001 58.2001 33.2001 57.9001 34.2001 56.9001Z" fill="#59AA47"/>
<path d="M11.4 55.5C11.3 55.5 11.3 55.5 11.4 55.5C11.3 55.5 11.3 55.5 11.4 55.5C11.4 56.2 11.7 56.7 11.7 56.8C11.7 56.9 11.7 57 11.6 57.1C11.5 57.2 11.4 57.2 11.3 57.2C10.5 56.9 9.80005 56.9 9.30005 56.9C10.1 57.7 11 58.2 11.8 58.3C12 58.3 12.2 58.4 12.4 58.4C12.6 58.4 12.7 58.4 12.8 58.4C12.9 57 11.9 56 11.4 55.5Z" fill="#59AA47"/>
<path d="M36 54.4C35.5 54.4 34.9 54.6 34.1 55C34 55.1 33.9 55.1 33.8 55C33.7 54.9 33.7 54.8 33.7 54.8C33.7 54.8 33.8 54.2 33.8 53.5C33.6 53.7 33.4 53.9 33.3 54.2C32.8 54.9 32.6 55.7 32.7 56.4H32.8C33 56.4 33.3 56.4 33.7 56.2C34.1 56.1 34.5 55.8 34.9 55.5C35.4 55.3 35.7 54.9 36 54.4C36.1 54.4 36.1 54.4 36 54.4Z" fill="#59AA47"/>
<path d="M37.5001 51.9001C37.1001 52.0001 36.4001 52.2001 35.7001 52.7001C35.6001 52.8001 35.5001 52.8001 35.4001 52.7001C35.3001 52.7001 35.3001 52.6001 35.3001 52.5001C35.3001 52.5001 35.4001 51.8001 35.2001 51.2001C35.0001 51.4001 34.9001 51.7001 34.8001 51.9001C34.4001 52.7001 34.3001 53.5001 34.4001 54.2001C34.6001 54.2001 35.0001 54.2001 35.4001 53.9001C35.8001 53.7001 36.2001 53.5001 36.5001 53.1001C37.0001 52.8001 37.3001 52.4001 37.5001 51.9001C37.6001 51.9001 37.6001 51.9001 37.5001 51.9001C37.6001 51.9001 37.6001 51.9001 37.5001 51.9001Z" fill="#59AA47"/>
<path d="M38.8001 49.1C38.7001 49.1 38.6001 49.1001 38.5001 49.2001C38.1001 49.3001 37.6001 49.6001 37.1001 50.2001C37.0001 50.3001 36.9001 50.3 36.8001 50.3C36.7001 50.3 36.6001 50.2 36.6001 50.1C36.6001 50.1 36.6001 49.4 36.4001 48.8C36.3001 49 36.2001 49.3 36.1001 49.5C35.8001 50.3 35.8001 51.1 36.0001 51.8C36.2001 51.8 36.6001 51.7001 37.0001 51.4001C37.4001 51.2001 37.7001 50.9 38.0001 50.5C38.3001 50.1 38.6001 49.7 38.8001 49.1Z" fill="#59AA47"/>
<path d="M39.6001 46.3001C39.2001 46.5001 38.6001 46.8001 38.0001 47.5001C37.9001 47.6001 37.8001 47.6001 37.7001 47.6001C37.6001 47.6001 37.5001 47.5001 37.5001 47.4001C37.5001 47.4001 37.4001 46.7001 37.1001 46.1001C37.0001 46.4001 36.9001 46.6001 36.8001 46.9001C36.7001 47.5001 36.6001 48.4001 36.9001 49.2001C37.0001 49.2001 37.4001 49.0001 37.9001 48.7001C38.3001 48.4001 38.6001 48.1001 38.8001 47.7001C39.3001 47.4001 39.5001 46.9001 39.6001 46.3001C39.7001 46.3001 39.7001 46.3001 39.6001 46.3001C39.6001 46.3001 39.7001 46.3001 39.6001 46.3001Z" fill="#59AA47"/>
<path d="M40.2 43.4C39.8 43.6 39.2 44 38.8 44.8C38.7 44.9 38.7 44.9 38.6 44.9C38.5 44.9 38.4 44.8 38.4 44.7C38.4 44.7 38.2 44 37.9 43.4C37.8 43.7 37.8 44 37.7 44.2C37.6 45.1 37.7 45.9 38.1 46.6C38.3 46.5 38.6 46.4 39 46C39.3 45.7 39.6 45.3 39.8 44.9C40 44.5 40.1 44 40.2 43.4Z" fill="#59AA47"/>
<path d="M39.2 42C39.2 42.1 39.1 42.1 39 42.1C38.9 42.1 38.8 42 38.8 41.9C38.8 41.9 38.6 41.2 38.2 40.7C38 41.1 38 41.3 38 41.6C38 42.5 38.2 43.2 38.7 43.8C38.8 43.7 39.2 43.5 39.5 43.1C39.8 42.8 40 42.4 40.2 41.9C40.4 41.4 40.5 40.9 40.5 40.4C40.1 40.7 39.6 41.2 39.2 42Z" fill="#59AA47"/>
<path d="M39.1001 39.3C39.0001 39.3 38.9001 39.3 38.9001 39.2C38.9001 39.2 38.6001 38.6 38.2001 38.2C38.2001 38.9 38.2001 40.3 39.0001 41.2C39.1001 41.1 39.4001 40.9 39.7001 40.4C40.0001 40 40.1001 39.6 40.3001 39.1C40.4001 38.6 40.5001 38.1 40.5001 37.5C40.2001 37.8 39.7001 38.3 39.4001 39.1C39.3001 39.2 39.2001 39.3 39.1001 39.3Z" fill="#59AA47"/>
<path d="M39 36.4001C38.9 36.4001 38.8 36.4001 38.8 36.3001C38.8 36.3001 38.5 35.8001 38 35.4001C38.1 36.2001 38.3 37.6001 39.1 38.3001C39.2 38.2001 39.5 37.9001 39.8 37.5001C40 37.1001 40.2 36.7001 40.2 36.2001C40.3 35.7001 40.3 35.2001 40.2 34.6001C39.9 34.9001 39.5 35.5001 39.3 36.3001C39.1 36.3001 39.1 36.4001 39 36.4001Z" fill="#59AA47"/>
<path d="M38.6 33.6001C38.5 33.6001 38.4 33.6001 38.4 33.5001C38.4 33.5001 38 33.0001 37.5 32.6001C37.5 32.9001 37.6 33.2001 37.6 33.4001C37.7 34.0001 38.1 34.8001 38.7 35.4001C38.8 35.3001 39.1 35.0001 39.3 34.5001C39.5 34.1001 39.6 33.7001 39.7 33.2001C39.7 32.7001 39.7 32.2001 39.6 31.6001C39.3 31.9001 38.9 32.5001 38.7 33.4001C38.8 33.6001 38.7 33.6001 38.6 33.6001Z" fill="#59AA47"/>
<path d="M38.0001 30.9C37.9001 30.9 37.8001 30.9 37.7001 30.8C37.7001 30.8 37.2001 30.3 36.7001 30C36.8001 30.3 36.8001 30.5 36.9001 30.8C37.2001 31.6 37.7001 32.2 38.3001 32.6C38.4001 32.5 38.6001 32.2001 38.8001 31.7001C38.9001 31.3001 39.0001 30.8 39.0001 30.3C39.0001 29.8 38.9001 29.3 38.7001 28.8C38.5001 29.2 38.2001 29.8001 38.1001 30.7001C38.1001 30.8001 38.1001 30.9 38.0001 30.9Z" fill="#59AA47"/>
<path d="M36.8001 28.2001C36.8001 28.2001 36.3001 27.8001 35.7001 27.5001C35.8001 27.8001 35.9001 28.0001 36.0001 28.3001C36.4001 29.1001 36.9001 29.7001 37.6001 30.0001C37.7001 29.9001 37.9001 29.5001 38.0001 29.0001C38.1001 28.6001 38.1001 28.1001 38.0001 27.6001C37.9001 27.1001 37.8001 26.6001 37.6001 26.1001C37.4001 26.5001 37.2001 27.2001 37.2001 28.0001C37.2001 28.1001 37.1001 28.2001 37.1001 28.2001C36.9001 28.3001 36.8001 28.2001 36.8001 28.2001Z" fill="#59AA47"/>
<path d="M34.3 25.1001C34.4 25.4001 34.5001 25.6001 34.7001 25.9001C35.2001 26.6001 35.8 27.1001 36.5 27.4001C36.6 27.3001 36.7 26.9001 36.8 26.4001C36.8 26.0001 36.8001 25.5001 36.7001 25.0001C36.6001 24.5001 36.4 24.0001 36.1 23.6001C35.9 24.0001 35.8001 24.7001 35.9001 25.6001C35.9001 25.7001 35.9 25.8001 35.8 25.8001C35.7 25.8001 35.6 25.8001 35.5 25.8001C35.5 25.7001 35 25.2001 34.3 25.1001C34.3 25.0001 34.3 25.0001 34.3 25.1001Z" fill="#59AA47"/>
<path d="M32.7001 22.9001C32.9001 23.2001 33.1001 23.4001 33.3001 23.6001C33.9001 24.2001 34.6001 24.6001 35.3001 24.8001C35.4001 24.6001 35.4001 24.3001 35.4001 23.8001C35.4001 23.4001 35.3001 22.9001 35.1001 22.5001C34.9001 22.1001 34.6001 21.6001 34.3001 21.2001C34.2001 21.7001 34.2001 22.4001 34.4001 23.1001C34.4001 23.2001 34.4001 23.3001 34.3001 23.4001C34.2001 23.5001 34.1001 23.5001 34.0001 23.4001C34.0001 23.3001 33.4001 23.0001 32.7001 22.9001Z" fill="#59AA47"/>
<path d="M32.4001 21.2C32.3001 21.3 32.2 21.3 32.1 21.3C32.1 21.3 31.5 21.1 30.9 21.1H30.8C31 21.3 31.3 21.5 31.5 21.7C32 22.1 32.7 22.5 33.6 22.5C33.6 22.3 33.7 21.9 33.5 21.4C33.4 21 33.2001 20.5 32.9001 20.1C32.6001 19.7 32.3 19.3 31.9 18.9C31.9 19.3 32.0001 20 32.4001 20.8C32.5001 21 32.5001 21.1 32.4001 21.2Z" fill="#59AA47"/>
<path d="M10.8 56.4H10.9C11 55.2 10.2 54.1 9.7 53.5C9.6 54.1 9.8 54.7 9.8 54.8C9.8 54.9 9.8 55 9.7 55.1C9.6 55.2 9.5 55.2 9.4 55.1C8.7 54.6 8 54.5 7.5 54.5C7.8 55 8.2 55.3 8.6 55.6C9 55.9 9.4 56.1 9.8 56.3C10.2 56.4 10.5 56.4 10.8 56.4Z" fill="#59AA47"/>
<path d="M9.1 54.2001C9.1 54.2001 9.2 54.2001 9.1 54.2001C9.3 53.3001 9 52.5001 8.7 51.9001C8.6 51.7001 8.4 51.4001 8.3 51.2001C8.2 51.8001 8.2 52.4001 8.2 52.5001C8.2 52.6001 8.2 52.7001 8.1 52.7001C8 52.7001 7.9 52.7001 7.8 52.7001C7.1 52.2001 6.4 51.9001 6 51.9001C6.3 52.4001 6.6 52.8001 7 53.1001C7.4 53.4001 7.7 53.7001 8.1 53.9001C8.6 54.1001 8.9 54.2001 9.1 54.2001Z" fill="#59AA47"/>
<path d="M7.60005 51.8001C7.80005 51.1001 7.80005 50.3001 7.50005 49.5001C7.40005 49.2001 7.30005 49.0001 7.10005 48.7001C6.90005 49.4001 6.90005 50.0001 6.90005 50.0001C6.90005 50.1001 6.80005 50.2001 6.70005 50.2001C6.60005 50.2001 6.50005 50.2001 6.40005 50.1001C6.00005 49.7001 5.40005 49.4001 5.00005 49.3001C4.90005 49.3001 4.80005 49.2001 4.80005 49.2001C5.00005 49.7001 5.30005 50.2001 5.60005 50.5001C5.90005 50.9001 6.30005 51.2001 6.60005 51.4001C7.10005 51.7001 7.50005 51.8001 7.60005 51.8001Z" fill="#59AA47"/>
<path d="M6.40002 49.3001C7.00002 48.0001 6.60002 46.8001 6.30002 46.2001C6.00002 46.8001 5.90002 47.5001 5.90002 47.5001C5.90002 47.6001 5.80002 47.7001 5.70002 47.7001C5.60002 47.7001 5.50002 47.7001 5.40002 47.6001C4.90002 47.0001 4.40002 46.7001 4.10002 46.5001C4.00002 46.5001 3.90002 46.4001 3.90002 46.4001C4.50002 48.6001 5.90002 49.2001 6.40002 49.3001Z" fill="#59AA47"/>
<path d="M4.60007 46.1C5.00007 46.4 5.40007 46.6 5.50007 46.7C5.90007 45.9 6.10007 45.1 5.90007 44.3C5.80007 44 5.80007 43.8 5.60007 43.5C5.30007 44.1 5.10007 44.7 5.10007 44.8C5.10007 44.9 5.00007 45 4.90007 45C4.80007 45 4.70007 45 4.70007 44.9C4.20007 44.2 3.60007 43.8 3.20007 43.6C3.30007 44.2 3.50007 44.6 3.70007 45.1C4.00007 45.4 4.20007 45.8 4.60007 46.1Z" fill="#59AA47"/>
<path d="M4.7001 44C4.7001 44 4.8001 44 4.7001 44C5.6001 42.8 5.5001 41.5 5.4001 40.9C5.0001 41.4 4.7001 42 4.7001 42C4.7001 42.1 4.6001 42.1 4.5001 42.2C4.4001 42.2 4.3001 42.1 4.3001 42.1C4.0001 41.4 3.6001 41 3.3001 40.7C3.2001 40.6 3.2001 40.6 3.1001 40.5C3.1001 42.8 4.3001 43.7 4.7001 44Z" fill="#59AA47"/>
<path d="M4.50003 41.2C5.00003 40.8 5.30003 40.2 5.40003 39.5C5.50003 38.9 5.50003 38.4 5.40003 38.1C4.90003 38.6 4.80003 39.2 4.80003 39.2C4.80003 39.3 4.70003 39.4 4.60003 39.4C4.50003 39.4 4.40003 39.3 4.40003 39.2C4.00003 38.5 3.60003 38 3.40003 37.7C3.30003 37.6 3.30003 37.6 3.20003 37.5C3.00003 39.9 4.00003 40.9 4.50003 41.2Z" fill="#59AA47"/>
<path d="M3.80005 37.4C4.10005 37.9 4.40005 38.1 4.50005 38.2C5.00005 37.7 5.40005 37 5.50005 36.1C5.50005 35.8 5.60005 35.5 5.60005 35.2C5.10005 35.6 4.80005 36.2 4.80005 36.2C4.80005 36.3 4.70005 36.3 4.60005 36.3C4.50005 36.3 4.40005 36.2 4.40005 36.1C4.20005 35.3 3.80005 34.7 3.50005 34.4C3.40005 35 3.40005 35.5 3.50005 36C3.50005 36.6 3.60005 37 3.80005 37.4Z" fill="#59AA47"/>
<path d="M4.10007 34.6001C4.30007 35.0001 4.60007 35.3001 4.70007 35.4001C5.30007 34.9001 5.70007 34.2001 5.90007 33.3001C6.00007 33.1001 6.00007 32.8001 6.00007 32.5001C5.50007 32.9001 5.10007 33.4001 5.10007 33.5001C5.00007 33.6001 4.90007 33.6001 4.90007 33.6001C4.80007 33.6001 4.70007 33.5001 4.70007 33.4001C4.50007 32.6001 4.10007 32.0001 3.80007 31.6001C3.70007 32.2001 3.70007 32.7001 3.70007 33.2001C3.80007 33.7001 3.90007 34.2001 4.10007 34.6001Z" fill="#59AA47"/>
<path d="M5.10002 32.6C5.90002 32.1 6.40002 31.5001 6.60002 30.7001C6.70002 30.5001 6.70002 30.2 6.80002 29.9C6.20002 30.2 5.80002 30.8 5.80002 30.8C5.70002 30.9 5.60002 30.9 5.50002 30.9C5.40002 30.9 5.30002 30.8001 5.30002 30.7001C5.20002 29.8001 4.90002 29.2 4.70002 28.8C4.50002 29.3 4.40002 29.9 4.40002 30.3C4.40002 30.8 4.50002 31.2001 4.60002 31.7001C4.80002 32.2001 5.00002 32.5 5.10002 32.6Z" fill="#59AA47"/>
<path d="M5.80005 29.9001C5.90005 29.9001 5.90005 29.9001 5.80005 29.9001C6.60005 29.5001 7.20005 28.9001 7.60005 28.2001C7.70005 28.0001 7.80005 27.7001 7.90005 27.5001C7.30005 27.8001 6.80005 28.2001 6.80005 28.2001C6.70005 28.3001 6.60005 28.3001 6.50005 28.2001C6.40005 28.2001 6.40005 28.1001 6.40005 28.0001C6.40005 27.1001 6.20005 26.5001 6.00005 26.1001C5.80005 26.6001 5.60005 27.1001 5.50005 27.6001C5.40005 28.1001 5.40005 28.5001 5.50005 29.0001C5.50005 29.4001 5.70005 29.8001 5.80005 29.9001Z" fill="#59AA47"/>
<path d="M6.9001 27.3C7.6001 27.1 8.3001 26.6 8.8001 25.9C9.0001 25.6 9.2001 25.3 9.3001 25.1C8.5001 25.2 8.0001 25.7 8.0001 25.7C7.9001 25.8 7.8001 25.8 7.7001 25.7C7.6001 25.6 7.6001 25.5 7.6001 25.4C7.8001 24.5 7.6001 23.9 7.5001 23.4C7.2001 23.9 7.0001 24.4 6.8001 24.8C6.7001 25.3 6.6001 25.7 6.6001 26.2C6.6001 26.8 6.8001 27.2 6.9001 27.3Z" fill="#59AA47"/>
<path d="M8.29999 24.8C9.49999 24.6 10.4 23.5 10.8 22.9C10.1 23 9.59999 23.3 9.59999 23.3C9.49999 23.4 9.39999 23.4 9.29999 23.3C9.19999 23.2 9.19999 23.1 9.19999 23C9.49999 22.2 9.39999 21.5 9.29999 21C7.89999 22.9 8.09999 24.3 8.29999 24.8Z" fill="#59AA47"/>
<path d="M10 22.5C10.8 22.5 11.5 22.1 12 21.7C12.2 21.5 12.5 21.3 12.7 21.1C12.1 21.1 11.5 21.3 11.5 21.3C11.4 21.3 11.3 21.3 11.2 21.2C11.1 21.1 11.1 21 11.2 20.9C11.6 20.1 11.7 19.4 11.7 19C11.3 19.4 10.9 19.8 10.6 20.2C10.3 20.6 10.1 21 10 21.5C9.90005 21.9 9.90005 22.3 10 22.5C9.90005 22.5 9.90005 22.5 10 22.5Z" fill="#59AA47"/>
<path d="M17.1001 33.0001C17.2001 33.2001 17.5001 33.2001 17.8001 33.2001H21.0001C19.1001 32.0001 18.4001 32.2001 17.1001 32.8001C17.1001 32.9001 17.1001 32.9001 17.1001 33.0001Z" fill="#EF4123"/>
<path d="M24.9 31.5C24.6 31.4 24.3 31.3 24.1 31.2C23.1 30.8 22.3 30.2 22.2 30.1C22 30 22 29.7 22.1 29.5C22.3 29.3 22.6 29.3 22.8 29.4C22.8 29.4 23.5 30 24.4 30.3C24.6 30.4 24.9 30.4 25.1 30.5C25.5 30.6 26 30.7 26.4 30.9C26.3 30.4 26.2 29.9 26.1 29.5C24.8 29.2 23.8 28.4 23.7 28.3C23.6 28.2 23.5 28.1 23.5 28C23.5 27.9 23.5 27.8 23.6 27.7C23.8 27.5 24.1 27.5 24.3 27.6C24.3 27.6 25 28.2 25.8 28.5C25.5 27.2 25 26.1 24.4 24.9C24 24.1 23.3 23.5 22.5 23.2C21.9 23 21.4 23 21.4 23C21.4 23 19.9 23 18.9 24.2C18.7 24.4 18.2 24.9 18.2 25.4C18.2 25.6 18.2 25.8 18.4 25.9C18.5 25.9 18.7 26 19.1 25.7C19.2 25.6 19.3 25.6 19.3 25.5C19.5 25.4 19.8 25.4 19.9 25.6C20.1 25.8 20 26.1 19.8 26.2C19.7 26.3 19.7 26.3 19.6 26.3C19.4 26.5 19 26.8 18.6 27.4C18 28.2 17.3 29.5 16.9 31.5V31.6C18.2 31 19.3 30.8 21.6 32.3C22.5 32.9 23.6 32.9 23.8 32.9H24.8C25.1 32.9 25.8 32.9 26.2 32.5C26.3 32.4 26.3 32.4 26.3 32.3C26.5 32 26 31.8 24.9 31.5Z" fill="#EF4123"/>
<path d="M20.3 49.7C20.4 49.6 20.6 49.4 20.6 49.3C20.6 49.2 20.6 49.2 20.5 49.1C20.4 49 20.3 49 20.1 49C19.9 49 19.6 49.2 19.2 49.5C18.9 49.7 18.5 50 18.5 50.4C18.5 50.5 18.6 50.6 18.6 50.6C18.8 50.7 19.2 50.7 19.4 50.7C19.6 50.3 19.9 50 20.3 49.7Z" fill="#FCBC80"/>
<path d="M21.9001 50.3001C21.9001 50.3001 21.9001 50.2001 21.8001 50.1001C21.8001 50.1001 21.6001 49.9001 21.1001 50.2001C20.7001 50.4001 20.4001 50.7001 20.2001 51.0001C20.3001 51.1001 20.4001 51.1001 20.4001 51.1001C20.8001 51.2001 21.3001 50.8001 21.5001 50.7001C21.7001 50.6001 21.9001 50.4001 21.9001 50.3001Z" fill="#FCBC80"/>
<path d="M17 48C17 48 16.9 48 17 48C16.6 48 16.1 48.2 15.9 48.5C15.7 48.7 15.8 48.8 15.8 48.9C15.8 49 16 49 16.2 49.1C16.3 49.1 16.3 49.1 16.4 49.1C16.5 48.7 16.8 48.4 17 48.2C17.1 48.1 17.1 48.1 17.2 48C17.1 48 17.1 48 17 48Z" fill="#FCBC80"/>
<path d="M17.2001 49.5001C17.2001 49.6001 17.2001 49.8001 17.6001 49.9001C17.7001 49.9001 17.7001 49.9001 17.8001 49.9001C17.9001 49.5001 18.2001 49.1001 18.8001 48.7001C18.9001 48.7001 18.9001 48.6001 19.0001 48.5001V48.4001C19.0001 48.3001 18.9001 48.3001 18.8001 48.2001C18.7001 48.2001 18.6001 48.1001 18.5001 48.1001C18.2001 48.1001 17.9001 48.3001 17.6001 48.6001C17.3001 49.1001 17.1001 49.3001 17.2001 49.5001Z" fill="#FCBC80"/>
<path d="M27.1 48.7001C27.3 48.7001 27.5 48.6001 27.6 48.5001C27.7 48.4001 27.8 48.2001 27.8 48.1001C27.6 47.8001 26.8001 46.9001 25.7001 46.2001C25.3001 45.9001 24.8 45.6001 24.3 45.4001C23.8 45.2001 23.3 45.1001 22.9 45.3001C22.8 45.3001 22.6 45.4001 22.4 45.6001C22.3 45.7001 22.1 45.8001 21.9 45.9001C21.4 46.2001 20.8 46.4001 20.2 46.4001C19.7 46.4001 19.1 46.5001 18.8 45.9001C18.6 45.6001 18.5 45.3001 18.6 44.9001C18.7 44.6001 19.1 44.4001 19.6 44.2001C19.8 44.1001 20 44.0001 20.2 43.9001C20.4 43.8001 20.6 43.6001 20.7 43.5001C20.9 43.4001 21.1 43.2001 21.4 43.0001C21.5 42.9001 21.7 42.8001 21.8 42.8001C21.6 42.8001 21.5 42.8001 21.3 42.7001C20.5 42.6001 20 42.9001 19.2 43.5001C18.5 44.0001 17.2 44.4001 15 44.8001C13 45.2001 10.2 45.6001 6.80005 46.0001C6.90005 46.4001 7.00005 46.8001 7.10005 47.1001C7.50005 48.5001 8.10005 49.8001 8.70005 50.9001C9.90005 50.4001 12.9 49.0001 15.2 47.8001C15.7 47.4001 16.4 47.1001 16.9 47.2001C17 47.2001 17.5 47.3001 17.8 47.5001C18.2 47.4001 18.6 47.4001 18.9 47.6001C19.3 47.8001 19.4 48.0001 19.5 48.2001C20 48.1001 20.4 48.1001 20.8 48.5001C21 48.7001 21.2 48.9001 21.2 49.2001C21.7 49.1001 22 49.3001 22.2 49.5001C22.5 49.8001 22.6 50.2001 22.6 50.4001C22.6 50.6001 22.5 50.7001 22.4 50.9001C22.6 50.9001 22.9 50.9001 23.1 50.8001C23.2 50.8001 23.2 50.7001 23.3 50.7001C23.2 50.5001 23 50.2001 22.7 49.9001C22.6 49.8001 22.6 49.7001 22.6 49.6001C22.6 49.5001 22.7 49.4001 22.7 49.3001C22.9 49.2001 23.1 49.2001 23.3 49.3001C23.7 49.8001 23.9 50.2001 24 50.4001C24.2 50.4001 24.4 50.4001 24.5 50.2001C24.6 50.1001 24.6001 50.0001 24.7001 49.9001C24.7001 49.8001 24.5 49.6001 24.3 49.3001C24.1 49.0001 23.6 48.6001 23.4 48.5001C23.3 48.4001 23.3001 48.3001 23.2001 48.2001C23.2001 48.1001 23.2 48.0001 23.3 47.9001C23.4 47.8001 23.5 47.8001 23.6 47.7001C23.7 47.7001 23.8 47.7001 23.9 47.8001C23.9 47.8001 24.6 48.3001 25 48.7001C25.3 49.0001 25.4 49.3001 25.5 49.5001C25.8 49.5001 26.0001 49.4001 26.2001 49.2001C26.2001 49.1001 26.3 49.1001 26.3 49.0001C26 48.6001 25.2 47.6001 24.3 47.2001C24.2 47.2001 24.1 47.1001 24.1 47.0001C24.1 46.9001 24.1 46.8001 24.1 46.7001C24.1 46.6001 24.2 46.5001 24.3 46.5001C24.4 46.5001 24.5 46.5001 24.6 46.5001C25.9 47.2001 26.8 48.3001 27.1 48.7001Z" fill="#FCBC80"/>
<path d="M21.9 44.9001C22.2 44.7001 22.4 44.6001 22.7 44.5001C24.1 44.1001 25.5 45.0001 26.2 45.5001C27.2 46.2001 28 47.0001 28.4 47.4001C28.4 47.4001 28.4 47.4001 28.5 47.5001C28.6 47.6001 28.9 47.9001 29.2 48.1001C30.9 49.4001 33.5 50.5001 34.6 51.0001C35.3 49.8001 35.8 48.4001 36.3 47.0001C36.4 46.7001 36.5 46.3001 36.6 46.0001C34.4 45.9001 32.1 45.4001 30.6 45.0001C28.8 44.6001 27.5 44.2001 27.4 44.1001C27 44.0001 26.7 43.9001 26.4 43.8001C25.4 43.4001 24.8 43.2001 24 43.2001C23.9 43.2001 23.8 43.2001 23.7 43.2001C23.6 43.2001 23.5 43.2001 23.4 43.2001C22.7 43.2001 22.3 43.2001 21.9 43.5001C21.6 43.7001 21.4 43.9001 21.3 44.0001C21.1 44.1001 21 44.3001 20.7 44.5001C20.5 44.6001 20.3 44.7001 20.1 44.8001C19.9 44.9001 19.6 45.0001 19.5 45.1001C19.5 45.1001 19.5 45.2001 19.6 45.3001C19.7 45.4001 19.9 45.4001 20.3 45.4001C20.6 45.4001 21.2 45.3001 21.6 45.0001C21.7 45.1001 21.8 45.0001 21.9 44.9001Z" fill="#FCBC80"/>
<path d="M63.06 77L64.78 63H66.2L64.48 77H63.06ZM55.54 73.4V71.94H67.88V73.4H55.54ZM57.86 77L59.6 63H61.02L59.28 77H57.86ZM56.18 68.06V66.6H68.52V68.06H56.18ZM71.3425 81C70.8358 81 70.3425 80.9133 69.8625 80.74C69.3825 80.58 68.9692 80.34 68.6225 80.02L69.4425 78.58C69.7092 78.8333 70.0025 79.0267 70.3225 79.16C70.6425 79.2933 70.9825 79.36 71.3425 79.36C71.8092 79.36 72.1958 79.24 72.5025 79C72.8092 78.76 73.0958 78.3333 73.3625 77.72L74.0225 76.26L74.2225 76.02L78.3825 66.4H80.2625L75.1225 78.06C74.8158 78.8067 74.4692 79.3933 74.0825 79.82C73.7092 80.2467 73.2958 80.5467 72.8425 80.72C72.3892 80.9067 71.8892 81 71.3425 81ZM73.8625 77.34L69.0225 66.4H71.0225L75.1425 75.84L73.8625 77.34ZM86.3014 77.12C85.2347 77.12 84.2881 76.8867 83.4614 76.42C82.6347 75.9533 81.9814 75.3133 81.5014 74.5C81.0214 73.6733 80.7814 72.74 80.7814 71.7C80.7814 70.6467 81.0214 69.7133 81.5014 68.9C81.9814 68.0867 82.6347 67.4533 83.4614 67C84.2881 66.5333 85.2347 66.3 86.3014 66.3C87.3547 66.3 88.2947 66.5333 89.1214 67C89.9614 67.4533 90.6147 68.0867 91.0814 68.9C91.5614 69.7 91.8014 70.6333 91.8014 71.7C91.8014 72.7533 91.5614 73.6867 91.0814 74.5C90.6147 75.3133 89.9614 75.9533 89.1214 76.42C88.2947 76.8867 87.3547 77.12 86.3014 77.12ZM86.3014 75.44C86.9814 75.44 87.5881 75.2867 88.1214 74.98C88.6681 74.6733 89.0947 74.24 89.4014 73.68C89.7081 73.1067 89.8614 72.4467 89.8614 71.7C89.8614 70.94 89.7081 70.2867 89.4014 69.74C89.0947 69.18 88.6681 68.7467 88.1214 68.44C87.5881 68.1333 86.9814 67.98 86.3014 67.98C85.6214 67.98 85.0147 68.1333 84.4814 68.44C83.9481 68.7467 83.5214 69.18 83.2014 69.74C82.8814 70.2867 82.7214 70.94 82.7214 71.7C82.7214 72.4467 82.8814 73.1067 83.2014 73.68C83.5214 74.24 83.9481 74.6733 84.4814 74.98C85.0147 75.2867 85.6214 75.44 86.3014 75.44ZM94.7367 77V63H100.197C101.423 63 102.47 63.1933 103.337 63.58C104.203 63.9667 104.87 64.5267 105.337 65.26C105.803 65.9933 106.037 66.8667 106.037 67.88C106.037 68.8933 105.803 69.7667 105.337 70.5C104.87 71.22 104.203 71.78 103.337 72.18C102.47 72.5667 101.423 72.76 100.197 72.76H95.8367L96.7367 71.82V77H94.7367ZM96.7367 72.02L95.8367 71.02H100.137C101.417 71.02 102.383 70.7467 103.037 70.2C103.703 69.6533 104.037 68.88 104.037 67.88C104.037 66.88 103.703 66.1067 103.037 65.56C102.383 65.0133 101.417 64.74 100.137 64.74H95.8367L96.7367 63.74V72.02ZM108.5 77V66.4H110.34V69.28L110.16 68.56C110.453 67.8267 110.946 67.2667 111.64 66.88C112.333 66.4933 113.186 66.3 114.2 66.3V68.16C114.12 68.1467 114.04 68.14 113.96 68.14C113.893 68.14 113.826 68.14 113.76 68.14C112.733 68.14 111.92 68.4467 111.32 69.06C110.72 69.6733 110.42 70.56 110.42 71.72V77H108.5ZM121.008 77.12C119.942 77.12 118.995 76.8867 118.168 76.42C117.342 75.9533 116.688 75.3133 116.208 74.5C115.728 73.6733 115.488 72.74 115.488 71.7C115.488 70.6467 115.728 69.7133 116.208 68.9C116.688 68.0867 117.342 67.4533 118.168 67C118.995 66.5333 119.942 66.3 121.008 66.3C122.062 66.3 123.002 66.5333 123.828 67C124.668 67.4533 125.322 68.0867 125.788 68.9C126.268 69.7 126.508 70.6333 126.508 71.7C126.508 72.7533 126.268 73.6867 125.788 74.5C125.322 75.3133 124.668 75.9533 123.828 76.42C123.002 76.8867 122.062 77.12 121.008 77.12ZM121.008 75.44C121.688 75.44 122.295 75.2867 122.828 74.98C123.375 74.6733 123.802 74.24 124.108 73.68C124.415 73.1067 124.568 72.4467 124.568 71.7C124.568 70.94 124.415 70.2867 124.108 69.74C123.802 69.18 123.375 68.7467 122.828 68.44C122.295 68.1333 121.688 67.98 121.008 67.98C120.328 67.98 119.722 68.1333 119.188 68.44C118.655 68.7467 118.228 69.18 117.908 69.74C117.588 70.2867 117.428 70.94 117.428 71.7C117.428 72.4467 117.588 73.1067 117.908 73.68C118.228 74.24 118.655 74.6733 119.188 74.98C119.722 75.2867 120.328 75.44 121.008 75.44ZM133.804 81C132.83 81 131.884 80.86 130.964 80.58C130.057 80.3133 129.317 79.9267 128.744 79.42L129.664 77.94C130.157 78.3667 130.764 78.7 131.484 78.94C132.204 79.1933 132.957 79.32 133.744 79.32C134.997 79.32 135.917 79.0267 136.504 78.44C137.09 77.8533 137.384 76.96 137.384 75.76V73.52L137.584 71.42L137.484 69.3V66.4H139.304V75.56C139.304 77.4267 138.837 78.8 137.904 79.68C136.97 80.56 135.604 81 133.804 81ZM133.564 76.56C132.537 76.56 131.617 76.3467 130.804 75.92C130.004 75.48 129.364 74.8733 128.884 74.1C128.417 73.3267 128.184 72.4333 128.184 71.42C128.184 70.3933 128.417 69.5 128.884 68.74C129.364 67.9667 130.004 67.3667 130.804 66.94C131.617 66.5133 132.537 66.3 133.564 66.3C134.47 66.3 135.297 66.4867 136.044 66.86C136.79 67.22 137.384 67.78 137.824 68.54C138.277 69.3 138.504 70.26 138.504 71.42C138.504 72.5667 138.277 73.52 137.824 74.28C137.384 75.04 136.79 75.6133 136.044 76C135.297 76.3733 134.47 76.56 133.564 76.56ZM133.784 74.88C134.49 74.88 135.117 74.7333 135.664 74.44C136.21 74.1467 136.637 73.74 136.944 73.22C137.264 72.7 137.424 72.1 137.424 71.42C137.424 70.74 137.264 70.14 136.944 69.62C136.637 69.1 136.21 68.7 135.664 68.42C135.117 68.1267 134.49 67.98 133.784 67.98C133.077 67.98 132.444 68.1267 131.884 68.42C131.337 68.7 130.904 69.1 130.584 69.62C130.277 70.14 130.124 70.74 130.124 71.42C130.124 72.1 130.277 72.7 130.584 73.22C130.904 73.74 131.337 74.1467 131.884 74.44C132.444 74.7333 133.077 74.88 133.784 74.88ZM142.972 77V66.4H144.812V69.28L144.632 68.56C144.926 67.8267 145.419 67.2667 146.112 66.88C146.806 66.4933 147.659 66.3 148.672 66.3V68.16C148.592 68.1467 148.512 68.14 148.432 68.14C148.366 68.14 148.299 68.14 148.232 68.14C147.206 68.14 146.392 68.4467 145.792 69.06C145.192 69.6733 144.892 70.56 144.892 71.72V77H142.972ZM156.838 77V74.76L156.738 74.34V70.52C156.738 69.7067 156.498 69.08 156.018 68.64C155.551 68.1867 154.844 67.96 153.898 67.96C153.271 67.96 152.658 68.0667 152.058 68.28C151.458 68.48 150.951 68.7533 150.538 69.1L149.738 67.66C150.284 67.22 150.938 66.8867 151.698 66.66C152.471 66.42 153.278 66.3 154.118 66.3C155.571 66.3 156.691 66.6533 157.478 67.36C158.264 68.0667 158.658 69.1467 158.658 70.6V77H156.838ZM153.358 77.12C152.571 77.12 151.878 76.9867 151.278 76.72C150.691 76.4533 150.238 76.0867 149.918 75.62C149.598 75.14 149.438 74.6 149.438 74C149.438 73.4267 149.571 72.9067 149.838 72.44C150.118 71.9733 150.564 71.6 151.178 71.32C151.804 71.04 152.644 70.9 153.698 70.9H157.058V72.28H153.778C152.818 72.28 152.171 72.44 151.838 72.76C151.504 73.08 151.338 73.4667 151.338 73.92C151.338 74.44 151.544 74.86 151.958 75.18C152.371 75.4867 152.944 75.64 153.678 75.64C154.398 75.64 155.024 75.48 155.558 75.16C156.104 74.84 156.498 74.3733 156.738 73.76L157.118 75.08C156.864 75.7067 156.418 76.2067 155.778 76.58C155.138 76.94 154.331 77.12 153.358 77.12ZM175.471 66.3C176.324 66.3 177.077 66.4667 177.731 66.8C178.384 67.1333 178.891 67.64 179.251 68.32C179.624 69 179.811 69.86 179.811 70.9V77H177.891V71.12C177.891 70.0933 177.651 69.32 177.171 68.8C176.691 68.28 176.017 68.02 175.151 68.02C174.511 68.02 173.951 68.1533 173.471 68.42C172.991 68.6867 172.617 69.08 172.351 69.6C172.097 70.12 171.971 70.7667 171.971 71.54V77H170.051V71.12C170.051 70.0933 169.811 69.32 169.331 68.8C168.864 68.28 168.191 68.02 167.311 68.02C166.684 68.02 166.131 68.1533 165.651 68.42C165.171 68.6867 164.797 69.08 164.531 69.6C164.264 70.12 164.131 70.7667 164.131 71.54V77H162.211V66.4H164.051V69.22L163.751 68.5C164.084 67.8067 164.597 67.2667 165.291 66.88C165.984 66.4933 166.791 66.3 167.711 66.3C168.724 66.3 169.597 66.5533 170.331 67.06C171.064 67.5533 171.544 68.3067 171.771 69.32L170.991 69C171.311 68.1867 171.871 67.5333 172.671 67.04C173.471 66.5467 174.404 66.3 175.471 66.3ZM187.883 77.12C186.817 77.12 185.87 76.8867 185.043 76.42C184.217 75.9533 183.563 75.3133 183.083 74.5C182.603 73.6733 182.363 72.74 182.363 71.7C182.363 70.6467 182.603 69.7133 183.083 68.9C183.563 68.0867 184.217 67.4533 185.043 67C185.87 66.5333 186.817 66.3 187.883 66.3C188.937 66.3 189.877 66.5333 190.703 67C191.543 67.4533 192.197 68.0867 192.663 68.9C193.143 69.7 193.383 70.6333 193.383 71.7C193.383 72.7533 193.143 73.6867 192.663 74.5C192.197 75.3133 191.543 75.9533 190.703 76.42C189.877 76.8867 188.937 77.12 187.883 77.12ZM187.883 75.44C188.563 75.44 189.17 75.2867 189.703 74.98C190.25 74.6733 190.677 74.24 190.983 73.68C191.29 73.1067 191.443 72.4467 191.443 71.7C191.443 70.94 191.29 70.2867 190.983 69.74C190.677 69.18 190.25 68.7467 189.703 68.44C189.17 68.1333 188.563 67.98 187.883 67.98C187.203 67.98 186.597 68.1333 186.063 68.44C185.53 68.7467 185.103 69.18 184.783 69.74C184.463 70.2867 184.303 70.94 184.303 71.7C184.303 72.4467 184.463 73.1067 184.783 73.68C185.103 74.24 185.53 74.6733 186.063 74.98C186.597 75.2867 187.203 75.44 187.883 75.44Z" fill="black"/>
</svg>
